<?xml version="1.0" encoding="utf-8" standalone="no"?>
<!DOCTYPE svg PUBLIC "-//W3C//DTD SVG 1.1//EN"
  "http://www.w3.org/Graphics/SVG/1.1/DTD/svg11.dtd">
<svg xmlns:xlink="http://www.w3.org/1999/xlink" width="612pt" height="432pt" viewBox="0 0 612 432" xmlns="http://www.w3.org/2000/svg" version="1.1">
 <metadata>
  <rdf:RDF xmlns:dc="http://purl.org/dc/elements/1.1/" xmlns:cc="http://creativecommons.org/ns#" xmlns:rdf="http://www.w3.org/1999/02/22-rdf-syntax-ns#">
   <cc:Work>
    <dc:type rdf:resource="http://purl.org/dc/dcmitype/StillImage"/>
    <dc:date>2025-03-25T00:47:06.391850</dc:date>
    <dc:format>image/svg+xml</dc:format>
    <dc:creator>
     <cc:Agent>
      <dc:title>Matplotlib v3.9.2, https://matplotlib.org/</dc:title>
     </cc:Agent>
    </dc:creator>
   </cc:Work>
  </rdf:RDF>
 </metadata>
 <defs>
  <style type="text/css">*{stroke-linejoin: round; stroke-linecap: butt}</style>
 </defs>
 <g id="figure_1">
  <g id="patch_1">
   <path d="M 0 432 
L 612 432 
L 612 0 
L 0 0 
z
" style="fill: #ffffff"/>
  </g>
  <g id="axes_1">
   <g id="patch_2">
    <path d="M 76.5 384.48 
L 550.8 384.48 
L 550.8 51.84 
L 76.5 51.84 
z
" style="fill: #ffffff"/>
   </g>
   <g id="matplotlib.axis_1">
    <g id="xtick_1">
     <g id="line2d_1">
      <path d="M 76.5 384.48 
L 76.5 51.84 
" clip-path="url(#pd607f8055e)" style="fill: none; stroke-dasharray: 2.96,1.28; stroke-dashoffset: 0; stroke: #b0b0b0; stroke-opacity: 0.5; stroke-width: 0.8"/>
     </g>
     <g id="line2d_2">
      <defs>
       <path id="m8c95dededc" d="M 0 0 
L 0 3.5 
" style="stroke: #000000; stroke-width: 0.8"/>
      </defs>
      <g>
       <use xlink:href="#m8c95dededc" x="76.5" y="384.48" style="stroke: #000000; stroke-width: 0.8"/>
      </g>
     </g>
     <g id="text_1">
      <!-- 0 -->
      <g transform="translate(73.31875 399.078438) scale(0.1 -0.1)">
       <defs>
        <path id="DejaVuSerif-30" d="M 2034 219 
Q 2513 219 2750 744 
Q 2988 1269 2988 2328 
Q 2988 3391 2750 3916 
Q 2513 4441 2034 4441 
Q 1556 4441 1318 3916 
Q 1081 3391 1081 2328 
Q 1081 1269 1318 744 
Q 1556 219 2034 219 
z
M 2034 -91 
Q 1275 -91 848 546 
Q 422 1184 422 2328 
Q 422 3475 848 4112 
Q 1275 4750 2034 4750 
Q 2797 4750 3222 4112 
Q 3647 3475 3647 2328 
Q 3647 1184 3222 546 
Q 2797 -91 2034 -91 
z
" transform="scale(0.015625)"/>
       </defs>
       <use xlink:href="#DejaVuSerif-30"/>
      </g>
     </g>
    </g>
    <g id="xtick_2">
     <g id="line2d_3">
      <path d="M 163.376088 384.48 
L 163.376088 51.84 
" clip-path="url(#pd607f8055e)" style="fill: none; stroke-dasharray: 2.96,1.28; stroke-dashoffset: 0; stroke: #b0b0b0; stroke-opacity: 0.5; stroke-width: 0.8"/>
     </g>
     <g id="line2d_4">
      <g>
       <use xlink:href="#m8c95dededc" x="163.376088" y="384.48" style="stroke: #000000; stroke-width: 0.8"/>
      </g>
     </g>
     <g id="text_2">
      <!-- 100 -->
      <g transform="translate(153.832338 399.078438) scale(0.1 -0.1)">
       <defs>
        <path id="DejaVuSerif-31" d="M 909 0 
L 909 331 
L 1722 331 
L 1722 4213 
L 781 3603 
L 781 4013 
L 1919 4750 
L 2350 4750 
L 2350 331 
L 3163 331 
L 3163 0 
L 909 0 
z
" transform="scale(0.015625)"/>
       </defs>
       <use xlink:href="#DejaVuSerif-31"/>
       <use xlink:href="#DejaVuSerif-30" x="63.623047"/>
       <use xlink:href="#DejaVuSerif-30" x="127.246094"/>
      </g>
     </g>
    </g>
    <g id="xtick_3">
     <g id="line2d_5">
      <path d="M 250.252175 384.48 
L 250.252175 51.84 
" clip-path="url(#pd607f8055e)" style="fill: none; stroke-dasharray: 2.96,1.28; stroke-dashoffset: 0; stroke: #b0b0b0; stroke-opacity: 0.5; stroke-width: 0.8"/>
     </g>
     <g id="line2d_6">
      <g>
       <use xlink:href="#m8c95dededc" x="250.252175" y="384.48" style="stroke: #000000; stroke-width: 0.8"/>
      </g>
     </g>
     <g id="text_3">
      <!-- 200 -->
      <g transform="translate(240.708425 399.078438) scale(0.1 -0.1)">
       <defs>
        <path id="DejaVuSerif-32" d="M 819 3553 
L 469 3553 
L 469 4384 
Q 803 4563 1142 4656 
Q 1481 4750 1806 4750 
Q 2534 4750 2956 4397 
Q 3378 4044 3378 3438 
Q 3378 2753 2422 1800 
Q 2347 1728 2309 1691 
L 1131 513 
L 3078 513 
L 3078 1088 
L 3444 1088 
L 3444 0 
L 434 0 
L 434 341 
L 1850 1753 
Q 2319 2222 2519 2614 
Q 2719 3006 2719 3438 
Q 2719 3909 2473 4175 
Q 2228 4441 1797 4441 
Q 1350 4441 1106 4219 
Q 863 3997 819 3553 
z
" transform="scale(0.015625)"/>
       </defs>
       <use xlink:href="#DejaVuSerif-32"/>
       <use xlink:href="#DejaVuSerif-30" x="63.623047"/>
       <use xlink:href="#DejaVuSerif-30" x="127.246094"/>
      </g>
     </g>
    </g>
    <g id="xtick_4">
     <g id="line2d_7">
      <path d="M 337.128263 384.48 
L 337.128263 51.84 
" clip-path="url(#pd607f8055e)" style="fill: none; stroke-dasharray: 2.96,1.28; stroke-dashoffset: 0; stroke: #b0b0b0; stroke-opacity: 0.5; stroke-width: 0.8"/>
     </g>
     <g id="line2d_8">
      <g>
       <use xlink:href="#m8c95dededc" x="337.128263" y="384.48" style="stroke: #000000; stroke-width: 0.8"/>
      </g>
     </g>
     <g id="text_4">
      <!-- 300 -->
      <g transform="translate(327.584513 399.078438) scale(0.1 -0.1)">
       <defs>
        <path id="DejaVuSerif-33" d="M 622 4469 
Q 988 4606 1323 4678 
Q 1659 4750 1953 4750 
Q 2638 4750 3022 4454 
Q 3406 4159 3406 3634 
Q 3406 3213 3140 2930 
Q 2875 2647 2388 2547 
Q 2963 2466 3280 2130 
Q 3597 1794 3597 1259 
Q 3597 606 3158 257 
Q 2719 -91 1894 -91 
Q 1528 -91 1179 -12 
Q 831 66 488 225 
L 488 1131 
L 838 1131 
Q 869 681 1141 450 
Q 1413 219 1906 219 
Q 2384 219 2661 495 
Q 2938 772 2938 1253 
Q 2938 1803 2653 2086 
Q 2369 2369 1819 2369 
L 1522 2369 
L 1522 2688 
L 1678 2688 
Q 2225 2688 2498 2914 
Q 2772 3141 2772 3597 
Q 2772 4006 2547 4223 
Q 2322 4441 1900 4441 
Q 1478 4441 1245 4241 
Q 1013 4041 972 3647 
L 622 3647 
L 622 4469 
z
" transform="scale(0.015625)"/>
       </defs>
       <use xlink:href="#DejaVuSerif-33"/>
       <use xlink:href="#DejaVuSerif-30" x="63.623047"/>
       <use xlink:href="#DejaVuSerif-30" x="127.246094"/>
      </g>
     </g>
    </g>
    <g id="xtick_5">
     <g id="line2d_9">
      <path d="M 424.00435 384.48 
L 424.00435 51.84 
" clip-path="url(#pd607f8055e)" style="fill: none; stroke-dasharray: 2.96,1.28; stroke-dashoffset: 0; stroke: #b0b0b0; stroke-opacity: 0.5; stroke-width: 0.8"/>
     </g>
     <g id="line2d_10">
      <g>
       <use xlink:href="#m8c95dededc" x="424.00435" y="384.48" style="stroke: #000000; stroke-width: 0.8"/>
      </g>
     </g>
     <g id="text_5">
      <!-- 400 -->
      <g transform="translate(414.4606 399.078438) scale(0.1 -0.1)">
       <defs>
        <path id="DejaVuSerif-34" d="M 2234 1581 
L 2234 4063 
L 641 1581 
L 2234 1581 
z
M 3609 0 
L 1484 0 
L 1484 331 
L 2234 331 
L 2234 1247 
L 197 1247 
L 197 1588 
L 2241 4750 
L 2859 4750 
L 2859 1581 
L 3750 1581 
L 3750 1247 
L 2859 1247 
L 2859 331 
L 3609 331 
L 3609 0 
z
" transform="scale(0.015625)"/>
       </defs>
       <use xlink:href="#DejaVuSerif-34"/>
       <use xlink:href="#DejaVuSerif-30" x="63.623047"/>
       <use xlink:href="#DejaVuSerif-30" x="127.246094"/>
      </g>
     </g>
    </g>
    <g id="xtick_6">
     <g id="line2d_11">
      <path d="M 510.880438 384.48 
L 510.880438 51.84 
" clip-path="url(#pd607f8055e)" style="fill: none; stroke-dasharray: 2.96,1.28; stroke-dashoffset: 0; stroke: #b0b0b0; stroke-opacity: 0.5; stroke-width: 0.8"/>
     </g>
     <g id="line2d_12">
      <g>
       <use xlink:href="#m8c95dededc" x="510.880438" y="384.48" style="stroke: #000000; stroke-width: 0.8"/>
      </g>
     </g>
     <g id="text_6">
      <!-- 500 -->
      <g transform="translate(501.336688 399.078438) scale(0.1 -0.1)">
       <defs>
        <path id="DejaVuSerif-35" d="M 3219 4666 
L 3219 4153 
L 1081 4153 
L 1081 2816 
Q 1244 2928 1461 2984 
Q 1678 3041 1947 3041 
Q 2703 3041 3140 2622 
Q 3578 2203 3578 1478 
Q 3578 738 3136 323 
Q 2694 -91 1894 -91 
Q 1572 -91 1234 -12 
Q 897 66 544 225 
L 544 1131 
L 897 1131 
Q 925 688 1179 453 
Q 1434 219 1894 219 
Q 2388 219 2653 544 
Q 2919 869 2919 1478 
Q 2919 2084 2655 2407 
Q 2391 2731 1894 2731 
Q 1613 2731 1398 2631 
Q 1184 2531 1019 2322 
L 750 2322 
L 750 4666 
L 3219 4666 
z
" transform="scale(0.015625)"/>
       </defs>
       <use xlink:href="#DejaVuSerif-35"/>
       <use xlink:href="#DejaVuSerif-30" x="63.623047"/>
       <use xlink:href="#DejaVuSerif-30" x="127.246094"/>
      </g>
     </g>
    </g>
    <g id="text_7">
     <!-- Training Steps -->
     <g transform="translate(261.436563 415.596875) scale(0.14 -0.14)">
      <defs>
       <path id="DejaVuSerif-54" d="M 1222 0 
L 1222 331 
L 1819 331 
L 1819 4294 
L 447 4294 
L 447 3566 
L 63 3566 
L 63 4666 
L 4206 4666 
L 4206 3566 
L 3822 3566 
L 3822 4294 
L 2450 4294 
L 2450 331 
L 3047 331 
L 3047 0 
L 1222 0 
z
" transform="scale(0.015625)"/>
       <path id="DejaVuSerif-72" d="M 3059 3328 
L 3059 2497 
L 2728 2497 
Q 2713 2744 2591 2866 
Q 2469 2988 2234 2988 
Q 1809 2988 1582 2694 
Q 1356 2400 1356 1850 
L 1356 331 
L 2022 331 
L 2022 0 
L 263 0 
L 263 331 
L 781 331 
L 781 2994 
L 231 2994 
L 231 3322 
L 1356 3322 
L 1356 2731 
Q 1525 3078 1790 3245 
Q 2056 3413 2438 3413 
Q 2578 3413 2733 3391 
Q 2888 3369 3059 3328 
z
" transform="scale(0.015625)"/>
       <path id="DejaVuSerif-61" d="M 2547 1044 
L 2547 1747 
L 1806 1747 
Q 1378 1747 1168 1562 
Q 959 1378 959 997 
Q 959 650 1171 447 
Q 1384 244 1747 244 
Q 2106 244 2326 466 
Q 2547 688 2547 1044 
z
M 3122 2075 
L 3122 331 
L 3634 331 
L 3634 0 
L 2547 0 
L 2547 359 
Q 2356 128 2106 18 
Q 1856 -91 1522 -91 
Q 969 -91 644 203 
Q 319 497 319 997 
Q 319 1513 691 1797 
Q 1063 2081 1741 2081 
L 2547 2081 
L 2547 2309 
Q 2547 2688 2317 2895 
Q 2088 3103 1672 3103 
Q 1328 3103 1125 2947 
Q 922 2791 872 2484 
L 575 2484 
L 575 3156 
Q 875 3284 1158 3348 
Q 1441 3413 1709 3413 
Q 2400 3413 2761 3070 
Q 3122 2728 3122 2075 
z
" transform="scale(0.015625)"/>
       <path id="DejaVuSerif-69" d="M 622 4353 
Q 622 4497 726 4603 
Q 831 4709 978 4709 
Q 1122 4709 1226 4603 
Q 1331 4497 1331 4353 
Q 1331 4206 1228 4103 
Q 1125 4000 978 4000 
Q 831 4000 726 4103 
Q 622 4206 622 4353 
z
M 1356 331 
L 1900 331 
L 1900 0 
L 231 0 
L 231 331 
L 781 331 
L 781 2988 
L 231 2988 
L 231 3322 
L 1356 3322 
L 1356 331 
z
" transform="scale(0.015625)"/>
       <path id="DejaVuSerif-6e" d="M 263 0 
L 263 331 
L 781 331 
L 781 2988 
L 231 2988 
L 231 3322 
L 1356 3322 
L 1356 2731 
Q 1516 3069 1770 3241 
Q 2025 3413 2363 3413 
Q 2913 3413 3172 3097 
Q 3431 2781 3431 2113 
L 3431 331 
L 3944 331 
L 3944 0 
L 2356 0 
L 2356 331 
L 2853 331 
L 2853 1931 
Q 2853 2541 2703 2767 
Q 2553 2994 2175 2994 
Q 1775 2994 1565 2701 
Q 1356 2409 1356 1850 
L 1356 331 
L 1856 331 
L 1856 0 
L 263 0 
z
" transform="scale(0.015625)"/>
       <path id="DejaVuSerif-67" d="M 3359 2988 
L 3359 72 
Q 3359 -644 2965 -1033 
Q 2572 -1422 1844 -1422 
Q 1516 -1422 1216 -1362 
Q 916 -1303 641 -1184 
L 641 -488 
L 941 -488 
Q 997 -813 1206 -963 
Q 1416 -1113 1806 -1113 
Q 2313 -1113 2548 -827 
Q 2784 -541 2784 72 
L 2784 519 
Q 2616 206 2355 57 
Q 2094 -91 1709 -91 
Q 1097 -91 708 395 
Q 319 881 319 1663 
Q 319 2444 706 2928 
Q 1094 3413 1709 3413 
Q 2094 3413 2355 3264 
Q 2616 3116 2784 2803 
L 2784 3322 
L 3909 3322 
L 3909 2988 
L 3359 2988 
z
M 2784 1825 
Q 2784 2422 2554 2737 
Q 2325 3053 1888 3053 
Q 1444 3053 1217 2703 
Q 991 2353 991 1663 
Q 991 975 1217 622 
Q 1444 269 1888 269 
Q 2325 269 2554 583 
Q 2784 897 2784 1497 
L 2784 1825 
z
" transform="scale(0.015625)"/>
       <path id="DejaVuSerif-20" transform="scale(0.015625)"/>
       <path id="DejaVuSerif-53" d="M 594 225 
L 594 1288 
L 953 1284 
Q 969 753 1261 498 
Q 1553 244 2150 244 
Q 2706 244 2998 464 
Q 3291 684 3291 1106 
Q 3291 1444 3114 1625 
Q 2938 1806 2369 1978 
L 1753 2163 
Q 1084 2366 811 2669 
Q 538 2972 538 3500 
Q 538 4094 959 4422 
Q 1381 4750 2144 4750 
Q 2469 4750 2856 4679 
Q 3244 4609 3681 4475 
L 3681 3481 
L 3328 3481 
Q 3275 3975 2998 4195 
Q 2722 4416 2156 4416 
Q 1663 4416 1405 4214 
Q 1147 4013 1147 3628 
Q 1147 3294 1340 3103 
Q 1534 2913 2163 2725 
L 2741 2553 
Q 3375 2363 3645 2067 
Q 3916 1772 3916 1275 
Q 3916 597 3481 253 
Q 3047 -91 2188 -91 
Q 1803 -91 1404 -12 
Q 1006 66 594 225 
z
" transform="scale(0.015625)"/>
       <path id="DejaVuSerif-74" d="M 691 2988 
L 184 2988 
L 184 3322 
L 691 3322 
L 691 4353 
L 1269 4353 
L 1269 3322 
L 2350 3322 
L 2350 2988 
L 1269 2988 
L 1269 878 
Q 1269 456 1350 337 
Q 1431 219 1650 219 
Q 1875 219 1978 351 
Q 2081 484 2088 781 
L 2522 781 
Q 2497 328 2275 118 
Q 2053 -91 1600 -91 
Q 1103 -91 897 129 
Q 691 350 691 878 
L 691 2988 
z
" transform="scale(0.015625)"/>
       <path id="DejaVuSerif-65" d="M 3469 1600 
L 991 1600 
L 991 1575 
Q 991 903 1244 561 
Q 1497 219 1991 219 
Q 2369 219 2611 417 
Q 2853 616 2950 1006 
L 3413 1006 
Q 3275 459 2904 184 
Q 2534 -91 1931 -91 
Q 1203 -91 761 389 
Q 319 869 319 1663 
Q 319 2450 753 2931 
Q 1188 3413 1894 3413 
Q 2647 3413 3050 2948 
Q 3453 2484 3469 1600 
z
M 2791 1931 
Q 2772 2513 2545 2808 
Q 2319 3103 1894 3103 
Q 1497 3103 1269 2806 
Q 1041 2509 991 1931 
L 2791 1931 
z
" transform="scale(0.015625)"/>
       <path id="DejaVuSerif-70" d="M 1313 1825 
L 1313 1497 
Q 1313 897 1542 583 
Q 1772 269 2209 269 
Q 2650 269 2876 622 
Q 3103 975 3103 1663 
Q 3103 2353 2876 2703 
Q 2650 3053 2209 3053 
Q 1772 3053 1542 2737 
Q 1313 2422 1313 1825 
z
M 738 2988 
L 184 2988 
L 184 3322 
L 1313 3322 
L 1313 2803 
Q 1481 3116 1742 3264 
Q 2003 3413 2388 3413 
Q 3000 3413 3387 2928 
Q 3775 2444 3775 1663 
Q 3775 881 3387 395 
Q 3000 -91 2388 -91 
Q 2003 -91 1742 57 
Q 1481 206 1313 519 
L 1313 -997 
L 1856 -997 
L 1856 -1331 
L 184 -1331 
L 184 -997 
L 738 -997 
L 738 2988 
z
" transform="scale(0.015625)"/>
       <path id="DejaVuSerif-73" d="M 359 184 
L 359 959 
L 691 959 
Q 703 588 923 403 
Q 1144 219 1575 219 
Q 1963 219 2166 364 
Q 2369 509 2369 788 
Q 2369 1006 2220 1140 
Q 2072 1275 1594 1428 
L 1178 1569 
Q 750 1706 558 1912 
Q 366 2119 366 2438 
Q 366 2894 700 3153 
Q 1034 3413 1625 3413 
Q 1888 3413 2178 3344 
Q 2469 3275 2778 3144 
L 2778 2419 
L 2447 2419 
Q 2434 2741 2221 2922 
Q 2009 3103 1644 3103 
Q 1281 3103 1095 2975 
Q 909 2847 909 2591 
Q 909 2381 1050 2254 
Q 1191 2128 1613 1997 
L 2069 1856 
Q 2541 1709 2748 1489 
Q 2956 1269 2956 922 
Q 2956 450 2595 179 
Q 2234 -91 1600 -91 
Q 1278 -91 972 -22 
Q 666 47 359 184 
z
" transform="scale(0.015625)"/>
      </defs>
      <use xlink:href="#DejaVuSerif-54"/>
      <use xlink:href="#DejaVuSerif-72" x="66.699219"/>
      <use xlink:href="#DejaVuSerif-61" x="114.501953"/>
      <use xlink:href="#DejaVuSerif-69" x="174.121094"/>
      <use xlink:href="#DejaVuSerif-6e" x="206.103516"/>
      <use xlink:href="#DejaVuSerif-69" x="270.507812"/>
      <use xlink:href="#DejaVuSerif-6e" x="302.490234"/>
      <use xlink:href="#DejaVuSerif-67" x="366.894531"/>
      <use xlink:href="#DejaVuSerif-20" x="430.908203"/>
      <use xlink:href="#DejaVuSerif-53" x="462.695312"/>
      <use xlink:href="#DejaVuSerif-74" x="531.201172"/>
      <use xlink:href="#DejaVuSerif-65" x="571.386719"/>
      <use xlink:href="#DejaVuSerif-70" x="630.566406"/>
      <use xlink:href="#DejaVuSerif-73" x="694.580078"/>
     </g>
    </g>
   </g>
   <g id="matplotlib.axis_2">
    <g id="ytick_1">
     <g id="line2d_13">
      <path d="M 76.5 384.48 
L 550.8 384.48 
" clip-path="url(#pd607f8055e)" style="fill: none; stroke-dasharray: 2.96,1.28; stroke-dashoffset: 0; stroke: #b0b0b0; stroke-opacity: 0.5; stroke-width: 0.8"/>
     </g>
     <g id="line2d_14">
      <defs>
       <path id="m1f3eafe8fc" d="M 0 0 
L -3.5 0 
" style="stroke: #000000; stroke-width: 0.8"/>
      </defs>
      <g>
       <use xlink:href="#m1f3eafe8fc" x="76.5" y="384.48" style="stroke: #000000; stroke-width: 0.8"/>
      </g>
     </g>
     <g id="text_8">
      <!-- 150 -->
      <g style="fill: #ff0000" transform="translate(50.4125 388.279219) scale(0.1 -0.1)">
       <use xlink:href="#DejaVuSerif-31"/>
       <use xlink:href="#DejaVuSerif-35" x="63.623047"/>
       <use xlink:href="#DejaVuSerif-30" x="127.246094"/>
      </g>
     </g>
    </g>
    <g id="ytick_2">
     <g id="line2d_15">
      <path d="M 76.5 342.9 
L 550.8 342.9 
" clip-path="url(#pd607f8055e)" style="fill: none; stroke-dasharray: 2.96,1.28; stroke-dashoffset: 0; stroke: #b0b0b0; stroke-opacity: 0.5; stroke-width: 0.8"/>
     </g>
     <g id="line2d_16">
      <g>
       <use xlink:href="#m1f3eafe8fc" x="76.5" y="342.9" style="stroke: #000000; stroke-width: 0.8"/>
      </g>
     </g>
     <g id="text_9">
      <!-- 200 -->
      <g style="fill: #ff0000" transform="translate(50.4125 346.699219) scale(0.1 -0.1)">
       <use xlink:href="#DejaVuSerif-32"/>
       <use xlink:href="#DejaVuSerif-30" x="63.623047"/>
       <use xlink:href="#DejaVuSerif-30" x="127.246094"/>
      </g>
     </g>
    </g>
    <g id="ytick_3">
     <g id="line2d_17">
      <path d="M 76.5 301.32 
L 550.8 301.32 
" clip-path="url(#pd607f8055e)" style="fill: none; stroke-dasharray: 2.96,1.28; stroke-dashoffset: 0; stroke: #b0b0b0; stroke-opacity: 0.5; stroke-width: 0.8"/>
     </g>
     <g id="line2d_18">
      <g>
       <use xlink:href="#m1f3eafe8fc" x="76.5" y="301.32" style="stroke: #000000; stroke-width: 0.8"/>
      </g>
     </g>
     <g id="text_10">
      <!-- 250 -->
      <g style="fill: #ff0000" transform="translate(50.4125 305.119219) scale(0.1 -0.1)">
       <use xlink:href="#DejaVuSerif-32"/>
       <use xlink:href="#DejaVuSerif-35" x="63.623047"/>
       <use xlink:href="#DejaVuSerif-30" x="127.246094"/>
      </g>
     </g>
    </g>
    <g id="ytick_4">
     <g id="line2d_19">
      <path d="M 76.5 259.74 
L 550.8 259.74 
" clip-path="url(#pd607f8055e)" style="fill: none; stroke-dasharray: 2.96,1.28; stroke-dashoffset: 0; stroke: #b0b0b0; stroke-opacity: 0.5; stroke-width: 0.8"/>
     </g>
     <g id="line2d_20">
      <g>
       <use xlink:href="#m1f3eafe8fc" x="76.5" y="259.74" style="stroke: #000000; stroke-width: 0.8"/>
      </g>
     </g>
     <g id="text_11">
      <!-- 300 -->
      <g style="fill: #ff0000" transform="translate(50.4125 263.539219) scale(0.1 -0.1)">
       <use xlink:href="#DejaVuSerif-33"/>
       <use xlink:href="#DejaVuSerif-30" x="63.623047"/>
       <use xlink:href="#DejaVuSerif-30" x="127.246094"/>
      </g>
     </g>
    </g>
    <g id="ytick_5">
     <g id="line2d_21">
      <path d="M 76.5 218.16 
L 550.8 218.16 
" clip-path="url(#pd607f8055e)" style="fill: none; stroke-dasharray: 2.96,1.28; stroke-dashoffset: 0; stroke: #b0b0b0; stroke-opacity: 0.5; stroke-width: 0.8"/>
     </g>
     <g id="line2d_22">
      <g>
       <use xlink:href="#m1f3eafe8fc" x="76.5" y="218.16" style="stroke: #000000; stroke-width: 0.8"/>
      </g>
     </g>
     <g id="text_12">
      <!-- 350 -->
      <g style="fill: #ff0000" transform="translate(50.4125 221.959219) scale(0.1 -0.1)">
       <use xlink:href="#DejaVuSerif-33"/>
       <use xlink:href="#DejaVuSerif-35" x="63.623047"/>
       <use xlink:href="#DejaVuSerif-30" x="127.246094"/>
      </g>
     </g>
    </g>
    <g id="ytick_6">
     <g id="line2d_23">
      <path d="M 76.5 176.58 
L 550.8 176.58 
" clip-path="url(#pd607f8055e)" style="fill: none; stroke-dasharray: 2.96,1.28; stroke-dashoffset: 0; stroke: #b0b0b0; stroke-opacity: 0.5; stroke-width: 0.8"/>
     </g>
     <g id="line2d_24">
      <g>
       <use xlink:href="#m1f3eafe8fc" x="76.5" y="176.58" style="stroke: #000000; stroke-width: 0.8"/>
      </g>
     </g>
     <g id="text_13">
      <!-- 400 -->
      <g style="fill: #ff0000" transform="translate(50.4125 180.379219) scale(0.1 -0.1)">
       <use xlink:href="#DejaVuSerif-34"/>
       <use xlink:href="#DejaVuSerif-30" x="63.623047"/>
       <use xlink:href="#DejaVuSerif-30" x="127.246094"/>
      </g>
     </g>
    </g>
    <g id="ytick_7">
     <g id="line2d_25">
      <path d="M 76.5 135 
L 550.8 135 
" clip-path="url(#pd607f8055e)" style="fill: none; stroke-dasharray: 2.96,1.28; stroke-dashoffset: 0; stroke: #b0b0b0; stroke-opacity: 0.5; stroke-width: 0.8"/>
     </g>
     <g id="line2d_26">
      <g>
       <use xlink:href="#m1f3eafe8fc" x="76.5" y="135" style="stroke: #000000; stroke-width: 0.8"/>
      </g>
     </g>
     <g id="text_14">
      <!-- 450 -->
      <g style="fill: #ff0000" transform="translate(50.4125 138.799219) scale(0.1 -0.1)">
       <use xlink:href="#DejaVuSerif-34"/>
       <use xlink:href="#DejaVuSerif-35" x="63.623047"/>
       <use xlink:href="#DejaVuSerif-30" x="127.246094"/>
      </g>
     </g>
    </g>
    <g id="ytick_8">
     <g id="line2d_27">
      <path d="M 76.5 93.42 
L 550.8 93.42 
" clip-path="url(#pd607f8055e)" style="fill: none; stroke-dasharray: 2.96,1.28; stroke-dashoffset: 0; stroke: #b0b0b0; stroke-opacity: 0.5; stroke-width: 0.8"/>
     </g>
     <g id="line2d_28">
      <g>
       <use xlink:href="#m1f3eafe8fc" x="76.5" y="93.42" style="stroke: #000000; stroke-width: 0.8"/>
      </g>
     </g>
     <g id="text_15">
      <!-- 500 -->
      <g style="fill: #ff0000" transform="translate(50.4125 97.219219) scale(0.1 -0.1)">
       <use xlink:href="#DejaVuSerif-35"/>
       <use xlink:href="#DejaVuSerif-30" x="63.623047"/>
       <use xlink:href="#DejaVuSerif-30" x="127.246094"/>
      </g>
     </g>
    </g>
    <g id="ytick_9">
     <g id="line2d_29">
      <path d="M 76.5 51.84 
L 550.8 51.84 
" clip-path="url(#pd607f8055e)" style="fill: none; stroke-dasharray: 2.96,1.28; stroke-dashoffset: 0; stroke: #b0b0b0; stroke-opacity: 0.5; stroke-width: 0.8"/>
     </g>
     <g id="line2d_30">
      <g>
       <use xlink:href="#m1f3eafe8fc" x="76.5" y="51.84" style="stroke: #000000; stroke-width: 0.8"/>
      </g>
     </g>
     <g id="text_16">
      <!-- 550 -->
      <g style="fill: #ff0000" transform="translate(50.4125 55.639219) scale(0.1 -0.1)">
       <use xlink:href="#DejaVuSerif-35"/>
       <use xlink:href="#DejaVuSerif-35" x="63.623047"/>
       <use xlink:href="#DejaVuSerif-30" x="127.246094"/>
      </g>
     </g>
    </g>
    <g id="text_17">
     <!-- Mean Response Length (Med) -->
     <g style="fill: #ff0000" transform="translate(43.301875 325.127656) rotate(-90) scale(0.14 -0.14)">
      <defs>
       <path id="DejaVuSerif-4d" d="M 353 0 
L 353 331 
L 947 331 
L 947 4331 
L 319 4331 
L 319 4666 
L 1678 4666 
L 3316 1344 
L 4953 4666 
L 6228 4666 
L 6228 4331 
L 5606 4331 
L 5606 331 
L 6203 331 
L 6203 0 
L 4378 0 
L 4378 331 
L 4972 331 
L 4972 3938 
L 3372 684 
L 2931 684 
L 1331 3938 
L 1331 331 
L 1925 331 
L 1925 0 
L 353 0 
z
" transform="scale(0.015625)"/>
       <path id="DejaVuSerif-52" d="M 3066 2316 
Q 3284 2256 3442 2114 
Q 3600 1972 3725 1716 
L 4403 331 
L 4972 331 
L 4972 0 
L 3872 0 
L 3144 1484 
Q 2934 1916 2759 2042 
Q 2584 2169 2278 2169 
L 1581 2169 
L 1581 331 
L 2241 331 
L 2241 0 
L 353 0 
L 353 331 
L 947 331 
L 947 4331 
L 353 4331 
L 353 4666 
L 2719 4666 
Q 3400 4666 3770 4341 
Q 4141 4016 4141 3419 
Q 4141 2938 3870 2661 
Q 3600 2384 3066 2316 
z
M 1581 2503 
L 2503 2503 
Q 2975 2503 3200 2726 
Q 3425 2950 3425 3419 
Q 3425 3888 3200 4109 
Q 2975 4331 2503 4331 
L 1581 4331 
L 1581 2503 
z
" transform="scale(0.015625)"/>
       <path id="DejaVuSerif-6f" d="M 1925 219 
Q 2388 219 2623 584 
Q 2859 950 2859 1663 
Q 2859 2375 2623 2739 
Q 2388 3103 1925 3103 
Q 1463 3103 1227 2739 
Q 991 2375 991 1663 
Q 991 950 1228 584 
Q 1466 219 1925 219 
z
M 1925 -91 
Q 1200 -91 759 389 
Q 319 869 319 1663 
Q 319 2456 758 2934 
Q 1197 3413 1925 3413 
Q 2653 3413 3092 2934 
Q 3531 2456 3531 1663 
Q 3531 869 3092 389 
Q 2653 -91 1925 -91 
z
" transform="scale(0.015625)"/>
       <path id="DejaVuSerif-4c" d="M 353 0 
L 353 331 
L 947 331 
L 947 4331 
L 353 4331 
L 353 4666 
L 2175 4666 
L 2175 4331 
L 1581 4331 
L 1581 384 
L 3713 384 
L 3713 1166 
L 4097 1166 
L 4097 0 
L 353 0 
z
" transform="scale(0.015625)"/>
       <path id="DejaVuSerif-68" d="M 263 0 
L 263 331 
L 781 331 
L 781 4531 
L 231 4531 
L 231 4863 
L 1356 4863 
L 1356 2731 
Q 1516 3069 1770 3241 
Q 2025 3413 2363 3413 
Q 2913 3413 3172 3097 
Q 3431 2781 3431 2113 
L 3431 331 
L 3944 331 
L 3944 0 
L 2356 0 
L 2356 331 
L 2853 331 
L 2853 1931 
Q 2853 2541 2704 2764 
Q 2556 2988 2175 2988 
Q 1775 2988 1565 2697 
Q 1356 2406 1356 1850 
L 1356 331 
L 1856 331 
L 1856 0 
L 263 0 
z
" transform="scale(0.015625)"/>
       <path id="DejaVuSerif-28" d="M 2041 -997 
Q 1281 -656 893 83 
Q 506 822 506 1931 
Q 506 3044 893 3783 
Q 1281 4522 2041 4863 
L 2041 4556 
Q 1559 4225 1350 3623 
Q 1141 3022 1141 1931 
Q 1141 844 1350 242 
Q 1559 -359 2041 -691 
L 2041 -997 
z
" transform="scale(0.015625)"/>
       <path id="DejaVuSerif-64" d="M 3359 331 
L 3909 331 
L 3909 0 
L 2784 0 
L 2784 519 
Q 2616 206 2355 57 
Q 2094 -91 1709 -91 
Q 1097 -91 708 395 
Q 319 881 319 1663 
Q 319 2444 706 2928 
Q 1094 3413 1709 3413 
Q 2094 3413 2355 3264 
Q 2616 3116 2784 2803 
L 2784 4531 
L 2241 4531 
L 2241 4863 
L 3359 4863 
L 3359 331 
z
M 2784 1497 
L 2784 1825 
Q 2784 2422 2554 2737 
Q 2325 3053 1888 3053 
Q 1444 3053 1217 2703 
Q 991 2353 991 1663 
Q 991 975 1217 622 
Q 1444 269 1888 269 
Q 2325 269 2554 583 
Q 2784 897 2784 1497 
z
" transform="scale(0.015625)"/>
       <path id="DejaVuSerif-29" d="M 453 -997 
L 453 -691 
Q 934 -359 1145 242 
Q 1356 844 1356 1931 
Q 1356 3022 1145 3623 
Q 934 4225 453 4556 
L 453 4863 
Q 1216 4522 1603 3783 
Q 1991 3044 1991 1931 
Q 1991 822 1603 83 
Q 1216 -656 453 -997 
z
" transform="scale(0.015625)"/>
      </defs>
      <use xlink:href="#DejaVuSerif-4d"/>
      <use xlink:href="#DejaVuSerif-65" x="102.392578"/>
      <use xlink:href="#DejaVuSerif-61" x="161.572266"/>
      <use xlink:href="#DejaVuSerif-6e" x="221.191406"/>
      <use xlink:href="#DejaVuSerif-20" x="285.595703"/>
      <use xlink:href="#DejaVuSerif-52" x="317.382812"/>
      <use xlink:href="#DejaVuSerif-65" x="392.675781"/>
      <use xlink:href="#DejaVuSerif-73" x="451.855469"/>
      <use xlink:href="#DejaVuSerif-70" x="503.173828"/>
      <use xlink:href="#DejaVuSerif-6f" x="567.1875"/>
      <use xlink:href="#DejaVuSerif-6e" x="627.392578"/>
      <use xlink:href="#DejaVuSerif-73" x="691.796875"/>
      <use xlink:href="#DejaVuSerif-65" x="743.115234"/>
      <use xlink:href="#DejaVuSerif-20" x="802.294922"/>
      <use xlink:href="#DejaVuSerif-4c" x="834.082031"/>
      <use xlink:href="#DejaVuSerif-65" x="900.488281"/>
      <use xlink:href="#DejaVuSerif-6e" x="959.667969"/>
      <use xlink:href="#DejaVuSerif-67" x="1024.072266"/>
      <use xlink:href="#DejaVuSerif-74" x="1088.085938"/>
      <use xlink:href="#DejaVuSerif-68" x="1128.271484"/>
      <use xlink:href="#DejaVuSerif-20" x="1192.675781"/>
      <use xlink:href="#DejaVuSerif-28" x="1224.462891"/>
      <use xlink:href="#DejaVuSerif-4d" x="1263.476562"/>
      <use xlink:href="#DejaVuSerif-65" x="1365.869141"/>
      <use xlink:href="#DejaVuSerif-64" x="1425.048828"/>
      <use xlink:href="#DejaVuSerif-29" x="1489.0625"/>
     </g>
    </g>
   </g>
   <g id="line2d_31">
    <path d="M 79.921404 -1 
L 79.975044 3.152673 
L 80.843804 174.874938 
L 81.712565 254.066667 
L 82.581326 312.988476 
L 83.450087 314.828907 
L 85.187609 337.828586 
L 86.05637 318.821839 
L 86.925131 325.018107 
L 87.793891 328.536063 
L 88.662652 318.959288 
L 90.400174 296.190559 
L 91.268935 295.835311 
L 92.137696 275.669018 
L 93.006457 291.695387 
L 93.875218 287.087085 
L 94.743978 297.365275 
L 95.612739 278.413656 
L 96.4815 281.569424 
L 97.350261 290.473848 
L 98.219022 271.491756 
L 99.956544 265.890015 
L 100.825305 274.566681 
L 101.694065 273.255898 
L 102.562826 264.639253 
L 103.431587 269.099522 
L 104.300348 279.441938 
L 105.169109 284.633652 
L 106.03787 286.930513 
L 106.906631 280.465983 
L 107.775392 292.890267 
L 108.644152 293.646436 
L 109.512913 298.128664 
L 110.381674 294.355401 
L 111.250435 289.431728 
L 112.119196 290.721262 
L 112.987957 293.142128 
L 113.856718 288.747024 
L 114.725479 285.250202 
L 115.594239 284.573239 
L 116.463 273.84049 
L 117.331761 295.362416 
L 118.200522 292.5823 
L 119.069283 268.297133 
L 119.938044 293.114593 
L 120.806805 295.155468 
L 121.675566 253.70014 
L 122.544326 273.476056 
L 123.413087 266.415806 
L 124.281848 252.32331 
L 125.150609 258.972722 
L 126.01937 257.363527 
L 126.888131 243.944003 
L 127.756892 247.585337 
L 128.625653 258.230542 
L 129.494413 247.398222 
L 130.363174 260.855534 
L 131.231935 253.191391 
L 132.100696 250.044429 
L 132.969457 244.970002 
L 133.838218 245.578691 
L 134.706979 234.908855 
L 135.57574 233.242 
L 136.4445 237.602876 
L 137.313261 257.392636 
L 138.182022 239.950151 
L 139.050783 259.918398 
L 139.919544 254.835583 
L 140.788305 260.026154 
L 141.657066 249.652701 
L 142.525827 244.133567 
L 143.394587 230.128335 
L 144.263348 226.062966 
L 145.132109 227.262731 
L 146.00087 219.703173 
L 146.869631 219.11787 
L 147.738392 220.45492 
L 148.607153 235.21252 
L 149.475914 224.136973 
L 150.344674 223.862163 
L 151.213435 233.527025 
L 152.082196 248.717646 
L 152.950957 238.202568 
L 153.819718 252.379142 
L 154.688479 245.500931 
L 155.55724 230.476831 
L 156.426001 240.423141 
L 157.294761 244.254254 
L 158.163522 238.687105 
L 159.032283 218.146181 
L 159.901044 240.269995 
L 160.769805 247.836659 
L 161.638566 226.411602 
L 162.507327 217.11498 
L 163.376088 243.122618 
L 164.244848 246.898051 
L 165.113609 240.631257 
L 165.98237 242.858353 
L 166.851131 223.645913 
L 167.719892 238.243097 
L 168.588653 242.001108 
L 169.457414 235.373648 
L 170.326175 249.122381 
L 171.194935 254.473141 
L 172.063696 245.693909 
L 172.932457 232.133979 
L 173.801218 241.404106 
L 174.669979 235.555637 
L 175.53874 223.486486 
L 176.407501 234.409814 
L 177.276262 252.399762 
L 178.145022 228.46332 
L 179.013783 236.040618 
L 180.751305 224.244082 
L 181.620066 235.242467 
L 182.488827 229.823439 
L 183.357588 234.572388 
L 184.226349 235.287108 
L 185.095109 221.073049 
L 185.96387 238.017419 
L 186.832631 234.714228 
L 188.570153 243.55598 
L 189.438914 238.874258 
L 190.307675 235.834292 
L 191.176436 240.61202 
L 192.045196 252.974748 
L 193.782718 246.554389 
L 194.651479 241.884633 
L 195.52024 245.128515 
L 196.389001 234.302082 
L 197.257762 243.964268 
L 198.126523 237.83807 
L 198.995283 234.492459 
L 199.864044 231.834919 
L 200.732805 245.644154 
L 201.601566 248.533005 
L 202.470327 235.544749 
L 203.339088 250.1531 
L 204.207849 250.291818 
L 205.07661 253.68108 
L 205.94537 247.938477 
L 206.814131 252.711371 
L 207.682892 256.313799 
L 208.551653 259.241568 
L 209.420414 255.284844 
L 210.289175 247.97836 
L 211.157936 255.281304 
L 212.026697 258.613338 
L 212.895457 248.924974 
L 213.764218 245.872712 
L 214.632979 250.043871 
L 215.50174 251.626368 
L 216.370501 246.50329 
L 217.239262 242.848569 
L 218.108023 242.246111 
L 218.976784 246.959035 
L 219.845544 242.810476 
L 220.714305 245.672997 
L 221.583066 235.539306 
L 222.451827 240.34882 
L 223.320588 230.855389 
L 224.189349 243.269001 
L 225.05811 231.469673 
L 225.926871 241.925721 
L 226.795631 245.964519 
L 227.664392 249.169584 
L 228.533153 234.470037 
L 229.401914 230.836063 
L 231.139436 255.900423 
L 232.008197 241.220074 
L 232.876958 248.551074 
L 233.745718 232.564054 
L 234.614479 226.886445 
L 235.48324 233.332944 
L 236.352001 242.987821 
L 237.220762 231.639671 
L 238.089523 233.032717 
L 238.958284 230.35216 
L 239.827045 222.164841 
L 240.695805 218.696792 
L 241.564566 227.840433 
L 242.433327 227.735734 
L 243.302088 224.191701 
L 244.170849 230.201983 
L 245.03961 218.704367 
L 245.908371 221.600133 
L 247.645892 228.037433 
L 248.514653 223.240544 
L 249.383414 236.131308 
L 250.252175 229.000861 
L 251.120936 227.131829 
L 251.989697 229.834098 
L 252.858458 223.954261 
L 253.727219 233.603097 
L 254.595979 215.834931 
L 255.46474 221.216767 
L 256.333501 215.747388 
L 257.202262 199.398484 
L 258.071023 223.618758 
L 258.939784 220.995822 
L 259.808545 213.371384 
L 260.677306 225.137923 
L 261.546066 235.129292 
L 262.414827 217.368549 
L 263.283588 218.626417 
L 264.152349 229.089127 
L 265.02111 218.551779 
L 265.889871 221.080206 
L 266.758632 223.129843 
L 267.627393 232.577289 
L 268.496153 212.367414 
L 269.364914 217.302717 
L 270.233675 204.5719 
L 271.102436 230.937056 
L 271.971197 232.898186 
L 272.839958 214.450208 
L 273.708719 224.322882 
L 274.57748 237.965406 
L 275.44624 219.137894 
L 276.315001 214.589967 
L 277.183762 216.295346 
L 278.052523 226.263189 
L 278.921284 214.046412 
L 279.790045 218.113659 
L 280.658806 229.033383 
L 281.527567 221.745615 
L 282.396328 201.104739 
L 283.265088 212.740388 
L 284.133849 199.133673 
L 285.00261 208.709191 
L 285.871371 216.670858 
L 286.740132 227.64479 
L 287.608893 209.274864 
L 288.477654 213.926956 
L 289.346415 215.042769 
L 290.215175 207.128662 
L 291.083936 216.618071 
L 291.952697 224.075443 
L 292.821458 204.769611 
L 293.690219 228.313359 
L 294.55898 237.062023 
L 295.427741 237.539797 
L 297.165262 218.596115 
L 298.034023 232.652955 
L 299.771545 220.40113 
L 300.640306 220.55203 
L 301.509067 225.296132 
L 302.377828 209.504094 
L 303.246589 207.282772 
L 304.115349 209.227634 
L 304.98411 228.25339 
L 305.852871 221.076285 
L 306.721632 218.117352 
L 307.590393 206.599763 
L 308.459154 222.763099 
L 309.327915 216.003609 
L 310.196676 206.835858 
L 311.065436 210.877968 
L 311.934197 210.82296 
L 312.802958 213.862051 
L 313.671719 206.954692 
L 314.54048 224.00517 
L 315.409241 209.407504 
L 316.278002 229.72143 
L 317.146763 215.78392 
L 318.015523 216.065697 
L 318.884284 220.740846 
L 319.753045 208.376417 
L 320.621806 215.023139 
L 321.490567 225.253699 
L 322.359328 212.049968 
L 323.228089 201.70976 
L 324.09685 212.344447 
L 324.96561 214.849804 
L 325.834371 215.960148 
L 326.703132 226.154151 
L 327.571893 216.289509 
L 328.440654 238.147902 
L 329.309415 216.092776 
L 330.178176 210.884591 
L 331.046937 211.968402 
L 331.915697 206.515329 
L 332.784458 196.21914 
L 333.653219 212.244278 
L 334.52198 220.622836 
L 335.390741 203.071363 
L 336.259502 205.070548 
L 337.128263 217.050088 
L 337.997024 204.697739 
L 338.865784 204.277612 
L 339.734545 207.453112 
L 340.603306 217.247963 
L 341.472067 201.100133 
L 342.340828 214.023102 
L 343.209589 192.057663 
L 344.07835 193.080032 
L 345.815871 214.595893 
L 346.684632 210.078357 
L 347.553393 212.558653 
L 348.422154 234.484401 
L 349.290915 215.602921 
L 350.159676 208.266427 
L 351.028437 235.878717 
L 351.897198 229.259035 
L 352.765958 202.398124 
L 353.634719 213.165565 
L 354.50348 240.843331 
L 355.372241 235.335948 
L 356.241002 232.122571 
L 357.109763 222.793109 
L 357.978524 224.06873 
L 358.847285 214.714537 
L 359.716045 223.926624 
L 360.584806 240.76995 
L 361.453567 223.005806 
L 362.322328 232.27172 
L 363.191089 244.537516 
L 364.05985 253.315415 
L 364.928611 244.246514 
L 365.797372 254.997116 
L 366.666132 242.427973 
L 367.534893 249.836022 
L 368.403654 243.922 
L 369.272415 254.01317 
L 370.141176 250.169837 
L 371.009937 256.542446 
L 371.878698 243.721929 
L 373.616219 257.737579 
L 374.48498 236.937859 
L 375.353741 248.834044 
L 376.222502 256.633377 
L 377.091263 251.118698 
L 377.960024 237.317927 
L 378.828785 256.502348 
L 379.697546 254.016266 
L 380.566306 257.040282 
L 381.435067 246.70364 
L 382.303828 243.081911 
L 383.172589 215.499289 
L 384.04135 237.155797 
L 384.910111 221.732507 
L 385.778872 195.739119 
L 386.647633 215.726628 
L 387.516393 230.364951 
L 388.385154 212.769116 
L 389.253915 213.632909 
L 390.122676 218.387682 
L 390.991437 207.594114 
L 391.860198 226.162678 
L 392.728959 220.694898 
L 393.59772 225.362002 
L 394.46648 238.784698 
L 395.335241 223.018546 
L 396.204002 212.759371 
L 397.072763 242.778322 
L 397.941524 220.652973 
L 398.810285 232.41441 
L 399.679046 223.770914 
L 400.547807 217.786125 
L 401.416567 217.2144 
L 402.285328 224.706858 
L 403.154089 212.540546 
L 404.02285 206.698231 
L 404.891611 215.566947 
L 405.760372 229.253439 
L 406.629133 216.371887 
L 407.497894 219.822857 
L 408.366654 214.823905 
L 409.235415 230.034321 
L 410.104176 219.978046 
L 410.972937 234.249574 
L 411.841698 229.775207 
L 412.710459 229.37773 
L 413.57922 207.237307 
L 414.447981 225.338197 
L 415.316741 214.910611 
L 416.185502 219.357214 
L 417.054263 224.80591 
L 417.923024 222.850249 
L 418.791785 209.47987 
L 419.660546 235.574353 
L 420.529307 233.912003 
L 421.398068 226.703962 
L 422.266828 211.435214 
L 423.135589 214.193391 
L 424.00435 201.526668 
L 424.873111 230.636677 
L 425.741872 224.231533 
L 426.610633 188.485295 
L 428.348155 218.668152 
L 429.216915 211.119633 
L 430.085676 210.994188 
L 430.954437 222.762566 
L 431.823198 177.208344 
L 432.691959 202.346746 
L 433.56072 194.100511 
L 434.429481 203.962171 
L 435.298242 215.222169 
L 436.167002 198.826239 
L 437.035763 191.918627 
L 437.904524 182.730168 
L 438.773285 196.827993 
L 439.642046 176.769666 
L 440.510807 184.345872 
L 441.379568 166.223131 
L 442.248329 204.076145 
L 443.117089 169.225131 
L 443.98585 185.576522 
L 444.854611 186.111918 
L 445.723372 184.302031 
L 446.592133 169.86784 
L 447.460894 168.289708 
L 448.329655 179.037278 
L 449.198416 201.48388 
L 450.067176 180.170158 
L 450.935937 181.32513 
L 451.804698 189.675023 
L 452.673459 190.151312 
L 453.54222 167.884491 
L 455.279742 169.782213 
L 456.148503 186.569466 
L 457.017263 188.494216 
L 457.886024 178.820825 
L 458.754785 177.029312 
L 459.623546 170.267398 
L 460.492307 174.264067 
L 461.361068 161.418717 
L 462.229829 183.826947 
L 463.09859 189.678537 
L 463.96735 186.892799 
L 464.836111 181.783413 
L 465.704872 181.542052 
L 466.573633 188.794734 
L 467.442394 212.209662 
L 468.311155 185.576345 
L 469.179916 177.966715 
L 470.048677 194.624918 
L 470.917437 208.055558 
L 471.786198 189.687331 
L 472.654959 200.793295 
L 473.52372 203.124632 
L 474.392481 175.477917 
L 475.261242 193.821615 
L 476.130003 195.94471 
L 476.998764 199.118865 
L 477.867524 209.66526 
L 478.736285 182.432618 
L 479.605046 173.342221 
L 480.473807 181.023025 
L 481.342568 168.133593 
L 482.211329 151.885835 
L 483.08009 174.828712 
L 483.948851 159.901519 
L 484.817612 151.759717 
L 485.686372 146.602251 
L 486.555133 155.408575 
L 487.423894 185.896671 
L 488.292655 162.867444 
L 489.161416 163.960264 
L 490.030177 165.314622 
L 490.898938 175.923016 
L 491.767699 166.593174 
L 492.636459 154.471287 
L 493.50522 169.106843 
L 494.373981 161.963592 
L 495.242742 182.180078 
L 496.111503 162.613026 
L 496.980264 162.532018 
L 497.849025 155.025526 
L 498.717786 173.459685 
L 499.586546 145.79754 
L 500.455307 159.695142 
L 501.324068 165.071281 
L 502.192829 146.452011 
L 503.06159 139.713242 
L 503.930351 138.615219 
L 504.799112 159.089321 
L 505.667873 142.513877 
L 506.536633 152.8618 
L 507.405394 141.763183 
L 508.274155 127.030479 
L 510.011677 146.793173 
L 510.880438 144.309502 
L 511.749199 157.070976 
L 512.61796 157.592692 
L 513.48672 173.430031 
L 514.355481 139.32636 
L 515.224242 149.985144 
L 516.093003 141.576246 
L 516.961764 153.857675 
L 517.830525 139.427785 
L 518.699286 149.410449 
L 519.568047 155.523895 
L 520.436807 148.35793 
L 521.305568 155.699551 
L 522.174329 133.136374 
L 523.04309 133.921773 
L 523.911851 147.364137 
L 524.780612 146.704907 
L 525.649373 122.116595 
L 526.518134 156.637969 
L 527.386894 153.585783 
L 528.255655 158.331255 
L 528.255655 158.331255 
" clip-path="url(#pd607f8055e)" style="fill: none; stroke: #ff0000; stroke-opacity: 0.3; stroke-width: 1.5; stroke-linecap: square"/>
   </g>
   <g id="line2d_32">
    <path d="M 78.877161 -1 
L 79.106283 21.085178 
L 79.975044 93.047132 
L 80.843804 154.011777 
L 81.712565 204.760394 
L 82.581326 246.074268 
L 83.450087 278.734681 
L 84.318848 303.522915 
L 85.187609 321.220255 
L 86.05637 332.607981 
L 86.925131 338.467379 
L 87.793891 339.579729 
L 88.662652 336.726316 
L 89.531413 338.063802 
L 90.400174 331.700057 
L 91.268935 320.590294 
L 92.137696 306.357817 
L 93.006457 296.772697 
L 93.875218 289.509645 
L 94.743978 285.049448 
L 96.4815 278.008464 
L 97.350261 276.225163 
L 98.219022 274.080648 
L 99.087783 273.365891 
L 99.956544 274.052352 
L 102.562826 277.029319 
L 103.431587 278.594128 
L 104.300348 279.147249 
L 105.169109 281.118973 
L 106.03787 281.78757 
L 106.906631 283.600062 
L 107.775392 285.758997 
L 108.644152 286.601557 
L 109.512913 288.119249 
L 110.381674 290.672077 
L 111.250435 291.311314 
L 112.119196 291.596485 
L 112.987957 292.418782 
L 113.856718 292.08076 
L 115.594239 289.213122 
L 116.463 287.358809 
L 117.331761 284.717219 
L 118.200522 282.45096 
L 119.069283 278.743163 
L 120.806805 273.39199 
L 122.544326 268.910788 
L 125.150609 262.177468 
L 126.01937 258.715529 
L 126.888131 256.293708 
L 128.625653 249.801185 
L 129.494413 248.028665 
L 130.363174 247.400878 
L 131.231935 246.054616 
L 132.100696 247.073946 
L 132.969457 248.803655 
L 133.838218 248.165924 
L 134.706979 248.853206 
L 135.57574 249.090931 
L 136.4445 248.236202 
L 137.313261 246.839712 
L 138.182022 246.017934 
L 139.050783 244.275406 
L 140.788305 239.821337 
L 141.657066 237.918657 
L 142.525827 236.388414 
L 143.394587 235.375272 
L 144.263348 235.26581 
L 146.869631 232.701834 
L 147.738392 232.515484 
L 148.607153 231.103012 
L 149.475914 230.706176 
L 150.344674 230.75642 
L 151.213435 232.406756 
L 152.082196 232.65032 
L 152.950957 233.645053 
L 154.688479 236.379868 
L 155.55724 238.076422 
L 156.426001 238.541214 
L 157.294761 238.82284 
L 158.163522 238.894824 
L 159.032283 237.96774 
L 159.901044 236.782221 
L 161.638566 237.132871 
L 162.507327 236.422695 
L 163.376088 236.35531 
L 164.244848 237.660958 
L 165.98237 237.724057 
L 166.851131 239.006456 
L 167.719892 238.915847 
L 168.588653 239.566391 
L 169.457414 240.668046 
L 170.326175 240.794423 
L 171.194935 239.819745 
L 172.063696 239.565836 
L 172.932457 239.81242 
L 173.801218 239.503669 
L 174.669979 237.286394 
L 177.276262 235.089438 
L 178.145022 234.787411 
L 179.013783 233.537208 
L 179.882544 232.754296 
L 181.620066 230.901093 
L 182.488827 231.314229 
L 183.357588 232.72268 
L 186.832631 237.194412 
L 187.701392 237.70942 
L 188.570153 238.711324 
L 189.438914 240.089101 
L 190.307675 240.218013 
L 191.176436 241.462733 
L 192.045196 241.555765 
L 192.913957 241.293793 
L 194.651479 241.775849 
L 196.389001 242.279824 
L 197.257762 241.557109 
L 198.126523 241.983967 
L 198.995283 242.606817 
L 199.864044 243.045129 
L 200.732805 243.672511 
L 201.601566 244.62917 
L 203.339088 246.052842 
L 204.207849 247.362872 
L 205.94537 250.435869 
L 206.814131 251.579658 
L 207.682892 252.512948 
L 208.551653 252.86696 
L 210.289175 253.800708 
L 211.157936 253.347365 
L 212.026697 252.727149 
L 212.895457 251.780725 
L 213.764218 251.439489 
L 214.632979 249.463526 
L 216.370501 246.291285 
L 217.239262 245.671724 
L 218.108023 244.744689 
L 219.845544 241.612612 
L 220.714305 241.275377 
L 221.583066 240.567939 
L 222.451827 240.419205 
L 223.320588 240.870831 
L 224.189349 241.177804 
L 225.05811 240.565644 
L 225.926871 240.45082 
L 226.795631 240.452965 
L 229.401914 241.187577 
L 230.270675 240.528255 
L 232.008197 239.571913 
L 233.745718 238.116098 
L 234.614479 237.23922 
L 235.48324 235.446113 
L 236.352001 234.095028 
L 238.089523 230.328912 
L 238.958284 229.238205 
L 239.827045 228.668484 
L 241.564566 225.955971 
L 242.433327 224.931124 
L 243.302088 225.855103 
L 244.170849 225.836434 
L 245.908371 227.419423 
L 246.777132 226.259399 
L 247.645892 225.630739 
L 248.514653 226.075307 
L 249.383414 225.388759 
L 250.252175 224.520747 
L 251.120936 224.707982 
L 251.989697 224.305903 
L 252.858458 223.067971 
L 253.727219 222.929276 
L 254.595979 222.657938 
L 256.333501 221.544073 
L 257.202262 221.481618 
L 258.071023 221.076814 
L 258.939784 221.343041 
L 260.677306 219.146544 
L 261.546066 219.93076 
L 262.414827 219.932708 
L 263.283588 219.393728 
L 265.02111 221.220921 
L 265.889871 222.58753 
L 266.758632 222.492017 
L 267.627393 223.32033 
L 268.496153 223.46994 
L 269.364914 221.867855 
L 270.233675 221.898065 
L 271.102436 222.738158 
L 271.971197 222.119887 
L 273.708719 222.937611 
L 274.57748 221.860575 
L 275.44624 220.277143 
L 276.315001 220.389364 
L 278.052523 218.844574 
L 279.790045 218.391293 
L 280.658806 216.8277 
L 281.527567 216.508697 
L 282.396328 214.008333 
L 283.265088 212.800571 
L 285.00261 211.834417 
L 285.871371 212.477342 
L 286.740132 213.500308 
L 287.608893 214.231835 
L 289.346415 216.084954 
L 291.083936 219.011502 
L 291.952697 220.648233 
L 292.821458 222.68372 
L 293.690219 223.415319 
L 294.55898 223.390432 
L 295.427741 223.960737 
L 296.296502 224.00819 
L 297.165262 223.27433 
L 298.034023 223.21648 
L 298.902784 224.172077 
L 300.640306 223.064854 
L 301.509067 222.148173 
L 302.377828 220.839819 
L 303.246589 218.892133 
L 304.115349 218.162511 
L 304.98411 215.13636 
L 305.852871 214.227712 
L 306.721632 214.014422 
L 307.590393 213.962117 
L 308.459154 214.294211 
L 309.327915 213.763463 
L 310.196676 213.700659 
L 311.065436 214.374736 
L 311.934197 215.237671 
L 312.802958 215.447508 
L 313.671719 215.919951 
L 314.54048 215.516061 
L 315.409241 214.40926 
L 316.278002 213.93556 
L 317.146763 213.600476 
L 318.884284 215.564241 
L 319.753045 215.754807 
L 321.490567 218.242056 
L 322.359328 217.786433 
L 323.228089 216.999364 
L 324.09685 217.041937 
L 324.96561 216.869152 
L 325.834371 215.47676 
L 326.703132 215.670128 
L 327.571893 214.917563 
L 328.440654 215.078338 
L 329.309415 214.084802 
L 330.178176 213.98972 
L 331.046937 213.444068 
L 332.784458 213.05375 
L 333.653219 212.742938 
L 334.52198 211.202243 
L 335.390741 209.306642 
L 336.259502 207.812494 
L 337.128263 205.554817 
L 337.997024 204.792185 
L 338.865784 205.232239 
L 339.734545 204.01743 
L 340.603306 205.173683 
L 341.472067 207.032967 
L 342.340828 207.997305 
L 343.209589 207.820199 
L 344.07835 208.142427 
L 344.947111 208.264704 
L 345.815871 209.888452 
L 346.684632 212.138674 
L 347.553393 213.969888 
L 349.290915 216.518576 
L 350.159676 218.282608 
L 351.028437 219.450998 
L 351.897198 220.26564 
L 353.634719 222.846581 
L 354.50348 224.471862 
L 355.372241 225.639949 
L 356.241002 226.173169 
L 359.716045 230.931868 
L 360.584806 234.031875 
L 361.453567 235.754853 
L 362.322328 236.536026 
L 363.191089 239.92217 
L 364.05985 242.267221 
L 364.928611 242.489293 
L 365.797372 243.231584 
L 366.666132 246.052933 
L 368.403654 249.02344 
L 369.272415 249.759861 
L 370.141176 250.864557 
L 371.009937 251.097981 
L 371.878698 252.487595 
L 372.747459 252.911114 
L 373.616219 252.568279 
L 374.48498 253.062391 
L 375.353741 252.18928 
L 377.091263 249.327915 
L 377.960024 248.120689 
L 378.828785 245.622293 
L 379.697546 243.754572 
L 380.566306 240.2741 
L 381.435067 237.642043 
L 384.04135 228.847005 
L 384.910111 227.102944 
L 385.778872 224.453906 
L 387.516393 220.153884 
L 388.385154 219.441132 
L 389.253915 219.102834 
L 390.122676 218.150872 
L 390.991437 218.146939 
L 391.860198 219.150851 
L 392.728959 220.9996 
L 393.59772 222.14495 
L 394.46648 222.830402 
L 395.335241 222.909513 
L 396.204002 224.075444 
L 397.072763 224.790739 
L 397.941524 223.009617 
L 398.810285 222.683503 
L 399.679046 222.536223 
L 401.416567 221.254029 
L 402.285328 221.924219 
L 403.154089 220.654117 
L 404.02285 220.836846 
L 405.760372 219.869457 
L 407.497894 220.996367 
L 408.366654 219.436749 
L 409.235415 220.039322 
L 410.104176 220.183051 
L 410.972937 221.881491 
L 412.710459 224.033153 
L 413.57922 223.344854 
L 414.447981 223.580546 
L 415.316741 224.801886 
L 416.185502 224.115718 
L 417.054263 222.754418 
L 417.923024 222.537764 
L 418.791785 221.508048 
L 419.660546 219.946392 
L 420.529307 220.235368 
L 421.398068 219.483753 
L 423.135589 217.492189 
L 424.00435 215.93424 
L 424.873111 215.451441 
L 425.741872 213.857391 
L 426.610633 213.362192 
L 427.479394 211.243008 
L 428.348155 210.165497 
L 429.216915 208.668181 
L 430.085676 207.770484 
L 430.954437 203.809197 
L 431.823198 203.272843 
L 433.56072 200.358161 
L 434.429481 198.209885 
L 435.298242 196.902975 
L 436.167002 194.644381 
L 437.035763 193.408736 
L 437.904524 191.194196 
L 438.773285 188.423411 
L 439.642046 186.318005 
L 441.379568 183.460212 
L 442.248329 183.539235 
L 443.117089 184.428409 
L 443.98585 182.649313 
L 444.854611 181.276706 
L 445.723372 179.659886 
L 446.592133 179.417097 
L 447.460894 180.321602 
L 448.329655 181.01263 
L 450.067176 181.451014 
L 450.935937 181.295845 
L 451.804698 179.98659 
L 452.673459 179.448955 
L 453.54222 178.171719 
L 454.410981 179.158271 
L 456.148503 176.855803 
L 457.017263 177.664797 
L 457.886024 178.88667 
L 458.754785 178.378862 
L 459.623546 177.15491 
L 460.492307 177.682824 
L 461.361068 179.213414 
L 462.229829 179.928005 
L 463.09859 182.274894 
L 464.836111 186.110405 
L 465.704872 186.846192 
L 466.573633 187.051717 
L 467.442394 188.641883 
L 468.311155 191.274157 
L 470.917437 197.30682 
L 471.786198 196.917037 
L 472.654959 196.917376 
L 473.52372 195.668925 
L 474.392481 194.9653 
L 475.261242 193.474672 
L 476.130003 189.980144 
L 476.998764 187.362053 
L 478.736285 181.27418 
L 479.605046 179.20261 
L 482.211329 170.707997 
L 483.08009 169.291384 
L 483.948851 166.144041 
L 484.817612 165.109784 
L 485.686372 164.591187 
L 487.423894 161.633264 
L 488.292655 162.201453 
L 489.161416 162.452188 
L 490.898938 164.874411 
L 491.767699 165.798044 
L 492.636459 167.036046 
L 493.50522 166.426431 
L 494.373981 165.619526 
L 495.242742 165.325445 
L 496.111503 164.728006 
L 496.980264 163.935986 
L 497.849025 161.557981 
L 498.717786 158.693836 
L 499.586546 157.723551 
L 502.192829 149.680615 
L 503.06159 149.654511 
L 503.930351 148.659464 
L 504.799112 147.438962 
L 505.667873 146.420542 
L 506.536633 145.960664 
L 507.405394 146.349091 
L 508.274155 145.786513 
L 509.142916 145.915063 
L 510.011677 145.444477 
L 510.880438 147.474622 
L 512.61796 148.17731 
L 513.48672 149.165508 
L 514.355481 150.426108 
L 516.093003 148.07004 
L 516.961764 148.076634 
L 519.568047 145.449784 
L 520.436807 144.747113 
L 521.305568 144.22087 
L 522.174329 143.925026 
L 523.04309 143.913556 
L 523.911851 144.240431 
L 524.780612 144.959625 
L 525.649373 146.12511 
L 526.518134 147.790859 
L 527.386894 150.010844 
L 528.255655 152.839039 
L 528.255655 152.839039 
" clip-path="url(#pd607f8055e)" style="fill: none; stroke: #ff0000; stroke-width: 1.5; stroke-linecap: square"/>
   </g>
   <g id="patch_3">
    <path d="M 76.5 384.48 
L 76.5 51.84 
" style="fill: none; stroke: #000000; stroke-width: 0.8; stroke-linejoin: miter; stroke-linecap: square"/>
   </g>
   <g id="patch_4">
    <path d="M 550.8 384.48 
L 550.8 51.84 
" style="fill: none; stroke: #000000; stroke-width: 0.8; stroke-linejoin: miter; stroke-linecap: square"/>
   </g>
   <g id="patch_5">
    <path d="M 76.5 384.48 
L 550.8 384.48 
" style="fill: none; stroke: #000000; stroke-width: 0.8; stroke-linejoin: miter; stroke-linecap: square"/>
   </g>
   <g id="patch_6">
    <path d="M 76.5 51.84 
L 550.8 51.84 
" style="fill: none; stroke: #000000; stroke-width: 0.8; stroke-linejoin: miter; stroke-linecap: square"/>
   </g>
   <g id="legend_1">
    <g id="patch_7">
     <path d="M 539.8 64.84 
L 543.8 64.84 
Q 545.8 64.84 545.8 62.84 
L 545.8 58.84 
Q 545.8 56.84 543.8 56.84 
L 539.8 56.84 
Q 537.8 56.84 537.8 58.84 
L 537.8 62.84 
Q 537.8 64.84 539.8 64.84 
z
" style="fill: #ffffff; opacity: 0.8; stroke: #cccccc; stroke-linejoin: miter"/>
    </g>
   </g>
  </g>
  <g id="axes_2">
   <g id="matplotlib.axis_3">
    <g id="ytick_10">
     <g id="line2d_33">
      <defs>
       <path id="m1859205fe1" d="M 0 0 
L 3.5 0 
" style="stroke: #000000; stroke-width: 0.8"/>
      </defs>
      <g>
       <use xlink:href="#m1859205fe1" x="550.8" y="384.48" style="stroke: #000000; stroke-width: 0.8"/>
      </g>
     </g>
     <g id="text_18">
      <!-- 0.0 -->
      <g style="fill: #0000ff" transform="translate(557.8 388.279219) scale(0.1 -0.1)">
       <defs>
        <path id="DejaVuSerif-2e" d="M 603 325 
Q 603 500 722 622 
Q 841 744 1019 744 
Q 1191 744 1312 622 
Q 1434 500 1434 325 
Q 1434 153 1312 31 
Q 1191 -91 1019 -91 
Q 841 -91 722 29 
Q 603 150 603 325 
z
" transform="scale(0.015625)"/>
       </defs>
       <use xlink:href="#DejaVuSerif-30"/>
       <use xlink:href="#DejaVuSerif-2e" x="63.623047"/>
       <use xlink:href="#DejaVuSerif-30" x="95.410156"/>
      </g>
     </g>
    </g>
    <g id="ytick_11">
     <g id="line2d_34">
      <g>
       <use xlink:href="#m1859205fe1" x="550.8" y="338.532549" style="stroke: #000000; stroke-width: 0.8"/>
      </g>
     </g>
     <g id="text_19">
      <!-- 0.1 -->
      <g style="fill: #0000ff" transform="translate(557.8 342.331768) scale(0.1 -0.1)">
       <use xlink:href="#DejaVuSerif-30"/>
       <use xlink:href="#DejaVuSerif-2e" x="63.623047"/>
       <use xlink:href="#DejaVuSerif-31" x="95.410156"/>
      </g>
     </g>
    </g>
    <g id="ytick_12">
     <g id="line2d_35">
      <g>
       <use xlink:href="#m1859205fe1" x="550.8" y="292.585098" style="stroke: #000000; stroke-width: 0.8"/>
      </g>
     </g>
     <g id="text_20">
      <!-- 0.2 -->
      <g style="fill: #0000ff" transform="translate(557.8 296.384316) scale(0.1 -0.1)">
       <use xlink:href="#DejaVuSerif-30"/>
       <use xlink:href="#DejaVuSerif-2e" x="63.623047"/>
       <use xlink:href="#DejaVuSerif-32" x="95.410156"/>
      </g>
     </g>
    </g>
    <g id="ytick_13">
     <g id="line2d_36">
      <g>
       <use xlink:href="#m1859205fe1" x="550.8" y="246.637646" style="stroke: #000000; stroke-width: 0.8"/>
      </g>
     </g>
     <g id="text_21">
      <!-- 0.3 -->
      <g style="fill: #0000ff" transform="translate(557.8 250.436865) scale(0.1 -0.1)">
       <use xlink:href="#DejaVuSerif-30"/>
       <use xlink:href="#DejaVuSerif-2e" x="63.623047"/>
       <use xlink:href="#DejaVuSerif-33" x="95.410156"/>
      </g>
     </g>
    </g>
    <g id="ytick_14">
     <g id="line2d_37">
      <g>
       <use xlink:href="#m1859205fe1" x="550.8" y="200.690195" style="stroke: #000000; stroke-width: 0.8"/>
      </g>
     </g>
     <g id="text_22">
      <!-- 0.4 -->
      <g style="fill: #0000ff" transform="translate(557.8 204.489414) scale(0.1 -0.1)">
       <use xlink:href="#DejaVuSerif-30"/>
       <use xlink:href="#DejaVuSerif-2e" x="63.623047"/>
       <use xlink:href="#DejaVuSerif-34" x="95.410156"/>
      </g>
     </g>
    </g>
    <g id="ytick_15">
     <g id="line2d_38">
      <g>
       <use xlink:href="#m1859205fe1" x="550.8" y="154.742744" style="stroke: #000000; stroke-width: 0.8"/>
      </g>
     </g>
     <g id="text_23">
      <!-- 0.5 -->
      <g style="fill: #0000ff" transform="translate(557.8 158.541963) scale(0.1 -0.1)">
       <use xlink:href="#DejaVuSerif-30"/>
       <use xlink:href="#DejaVuSerif-2e" x="63.623047"/>
       <use xlink:href="#DejaVuSerif-35" x="95.410156"/>
      </g>
     </g>
    </g>
    <g id="ytick_16">
     <g id="line2d_39">
      <g>
       <use xlink:href="#m1859205fe1" x="550.8" y="108.795293" style="stroke: #000000; stroke-width: 0.8"/>
      </g>
     </g>
     <g id="text_24">
      <!-- 0.6 -->
      <g style="fill: #0000ff" transform="translate(557.8 112.594511) scale(0.1 -0.1)">
       <defs>
        <path id="DejaVuSerif-36" d="M 2094 219 
Q 2534 219 2771 542 
Q 3009 866 3009 1472 
Q 3009 2078 2771 2401 
Q 2534 2725 2094 2725 
Q 1647 2725 1412 2412 
Q 1178 2100 1178 1509 
Q 1178 888 1415 553 
Q 1653 219 2094 219 
z
M 1075 2569 
Q 1288 2803 1556 2918 
Q 1825 3034 2163 3034 
Q 2859 3034 3264 2615 
Q 3669 2197 3669 1472 
Q 3669 763 3233 336 
Q 2797 -91 2069 -91 
Q 1278 -91 853 498 
Q 428 1088 428 2181 
Q 428 3406 931 4078 
Q 1434 4750 2350 4750 
Q 2597 4750 2869 4703 
Q 3141 4656 3425 4563 
L 3425 3794 
L 3072 3794 
Q 3034 4109 2831 4275 
Q 2628 4441 2284 4441 
Q 1678 4441 1381 3981 
Q 1084 3522 1075 2569 
z
" transform="scale(0.015625)"/>
       </defs>
       <use xlink:href="#DejaVuSerif-30"/>
       <use xlink:href="#DejaVuSerif-2e" x="63.623047"/>
       <use xlink:href="#DejaVuSerif-36" x="95.410156"/>
      </g>
     </g>
    </g>
    <g id="ytick_17">
     <g id="line2d_40">
      <g>
       <use xlink:href="#m1859205fe1" x="550.8" y="62.847841" style="stroke: #000000; stroke-width: 0.8"/>
      </g>
     </g>
     <g id="text_25">
      <!-- 0.7 -->
      <g style="fill: #0000ff" transform="translate(557.8 66.64706) scale(0.1 -0.1)">
       <defs>
        <path id="DejaVuSerif-37" d="M 3609 4347 
L 1784 0 
L 1319 0 
L 3059 4153 
L 903 4153 
L 903 3578 
L 538 3578 
L 538 4666 
L 3609 4666 
L 3609 4347 
z
" transform="scale(0.015625)"/>
       </defs>
       <use xlink:href="#DejaVuSerif-30"/>
       <use xlink:href="#DejaVuSerif-2e" x="63.623047"/>
       <use xlink:href="#DejaVuSerif-37" x="95.410156"/>
      </g>
     </g>
    </g>
    <g id="text_26">
     <!-- Reward Score (Med) -->
     <g style="fill: #0000ff" transform="translate(588.340938 291.687344) rotate(-90) scale(0.14 -0.14)">
      <defs>
       <path id="DejaVuSerif-77" d="M 3072 3322 
L 3922 728 
L 4672 2988 
L 4191 2988 
L 4191 3322 
L 5394 3322 
L 5394 2988 
L 5025 2988 
L 4038 0 
L 3559 0 
L 2741 2484 
L 1919 0 
L 1459 0 
L 475 2988 
L 103 2988 
L 103 3322 
L 1606 3322 
L 1606 2988 
L 1069 2988 
L 1813 728 
L 2669 3322 
L 3072 3322 
z
" transform="scale(0.015625)"/>
       <path id="DejaVuSerif-63" d="M 3291 997 
Q 3169 466 2822 187 
Q 2475 -91 1925 -91 
Q 1200 -91 759 389 
Q 319 869 319 1663 
Q 319 2459 759 2936 
Q 1200 3413 1925 3413 
Q 2241 3413 2553 3339 
Q 2866 3266 3181 3116 
L 3181 2266 
L 2847 2266 
Q 2781 2703 2561 2903 
Q 2341 3103 1931 3103 
Q 1466 3103 1228 2742 
Q 991 2381 991 1663 
Q 991 944 1227 581 
Q 1463 219 1931 219 
Q 2303 219 2525 412 
Q 2747 606 2828 997 
L 3291 997 
z
" transform="scale(0.015625)"/>
      </defs>
      <use xlink:href="#DejaVuSerif-52"/>
      <use xlink:href="#DejaVuSerif-65" x="75.292969"/>
      <use xlink:href="#DejaVuSerif-77" x="134.472656"/>
      <use xlink:href="#DejaVuSerif-61" x="220.068359"/>
      <use xlink:href="#DejaVuSerif-72" x="279.6875"/>
      <use xlink:href="#DejaVuSerif-64" x="327.490234"/>
      <use xlink:href="#DejaVuSerif-20" x="391.503906"/>
      <use xlink:href="#DejaVuSerif-53" x="423.291016"/>
      <use xlink:href="#DejaVuSerif-63" x="491.796875"/>
      <use xlink:href="#DejaVuSerif-6f" x="547.802734"/>
      <use xlink:href="#DejaVuSerif-72" x="608.007812"/>
      <use xlink:href="#DejaVuSerif-65" x="655.810547"/>
      <use xlink:href="#DejaVuSerif-20" x="714.990234"/>
      <use xlink:href="#DejaVuSerif-28" x="746.777344"/>
      <use xlink:href="#DejaVuSerif-4d" x="785.791016"/>
      <use xlink:href="#DejaVuSerif-65" x="888.183594"/>
      <use xlink:href="#DejaVuSerif-64" x="947.363281"/>
      <use xlink:href="#DejaVuSerif-29" x="1011.376953"/>
     </g>
    </g>
   </g>
   <g id="line2d_41">
    <path d="M 77.368761 388.587395 
L 78.237522 386.839959 
L 79.106283 385.591551 
L 79.975044 369.658853 
L 80.843804 330.032471 
L 81.712565 328.619324 
L 82.581326 281.22066 
L 83.450087 283.134892 
L 84.318848 270.097666 
L 85.187609 248.25373 
L 86.05637 264.183182 
L 86.925131 255.456565 
L 87.793891 241.083615 
L 88.662652 255.900389 
L 89.531413 255.067795 
L 90.400174 251.837589 
L 91.268935 232.571711 
L 92.137696 253.760691 
L 93.875218 242.444726 
L 94.743978 233.751727 
L 95.612739 248.777041 
L 96.4815 247.243718 
L 97.350261 230.771706 
L 98.219022 239.779613 
L 99.087783 241.156649 
L 99.956544 237.825385 
L 101.694065 245.473804 
L 102.562826 245.155761 
L 103.431587 236.886627 
L 104.300348 257.827613 
L 105.169109 252.496913 
L 106.03787 237.732195 
L 106.906631 249.226366 
L 107.775392 249.226633 
L 108.644152 241.288297 
L 109.512913 234.69677 
L 110.381674 239.156775 
L 111.250435 225.724069 
L 112.119196 235.025624 
L 112.987957 249.701164 
L 113.856718 244.814432 
L 114.725479 243.399465 
L 115.594239 230.708394 
L 116.463 237.057096 
L 117.331761 236.85683 
L 118.200522 247.639704 
L 119.069283 243.924231 
L 119.938044 235.304634 
L 120.806805 213.843258 
L 121.675566 228.590271 
L 122.544326 232.560503 
L 123.413087 217.05845 
L 124.281848 226.868852 
L 126.01937 241.705536 
L 126.888131 226.483143 
L 127.756892 223.004182 
L 128.625653 216.432353 
L 129.494413 216.516437 
L 130.363174 240.307062 
L 131.231935 215.083525 
L 132.100696 249.751063 
L 132.969457 219.316219 
L 133.838218 210.076564 
L 134.706979 204.694535 
L 135.57574 236.878356 
L 136.4445 233.190085 
L 137.313261 216.962794 
L 138.182022 230.726956 
L 139.050783 218.110767 
L 139.919544 181.113809 
L 140.788305 225.231312 
L 141.657066 224.412001 
L 142.525827 240.22623 
L 143.394587 244.70231 
L 144.263348 229.314761 
L 145.132109 223.257948 
L 146.00087 225.128029 
L 146.869631 213.550466 
L 147.738392 232.897998 
L 148.607153 218.259553 
L 149.475914 246.007604 
L 150.344674 211.573699 
L 151.213435 214.196534 
L 152.082196 231.288604 
L 152.950957 220.384975 
L 153.819718 202.31486 
L 154.688479 228.330534 
L 155.55724 218.707875 
L 156.426001 225.941555 
L 157.294761 242.849182 
L 158.163522 201.704778 
L 159.032283 204.427863 
L 159.901044 204.715589 
L 161.638566 242.57352 
L 162.507327 207.738579 
L 163.376088 200.413907 
L 164.244848 215.608071 
L 165.113609 201.545756 
L 165.98237 245.241865 
L 166.851131 236.54193 
L 167.719892 218.042232 
L 168.588653 227.053234 
L 169.457414 201.795086 
L 170.326175 211.132422 
L 171.194935 198.441413 
L 172.063696 219.612564 
L 172.932457 214.970486 
L 173.801218 193.882782 
L 174.669979 196.815855 
L 175.53874 210.952936 
L 176.407501 227.468329 
L 177.276262 188.327907 
L 178.145022 195.220641 
L 179.013783 222.725596 
L 179.882544 223.811189 
L 180.751305 207.7827 
L 181.620066 195.467609 
L 182.488827 205.431494 
L 183.357588 202.234062 
L 184.226349 209.051264 
L 185.095109 220.134146 
L 185.96387 179.407734 
L 186.832631 194.328646 
L 187.701392 199.443942 
L 188.570153 210.520922 
L 189.438914 226.025489 
L 190.307675 199.895988 
L 191.176436 184.36711 
L 192.045196 187.318655 
L 192.913957 192.486082 
L 193.782718 199.337167 
L 194.651479 189.959306 
L 195.52024 169.030507 
L 196.389001 193.317443 
L 197.257762 212.939151 
L 198.126523 210.192602 
L 198.995283 201.899889 
L 199.864044 207.750883 
L 200.732805 172.346906 
L 201.601566 193.396591 
L 202.470327 220.560395 
L 203.339088 223.356684 
L 204.207849 214.518679 
L 205.07661 204.120329 
L 205.94537 227.716481 
L 206.814131 206.782608 
L 207.682892 198.172139 
L 208.551653 186.560924 
L 210.289175 208.830369 
L 211.157936 225.065095 
L 212.026697 190.126632 
L 212.895457 183.109089 
L 213.764218 216.85832 
L 214.632979 199.851108 
L 215.50174 175.031472 
L 216.370501 212.405799 
L 217.239262 197.20507 
L 218.108023 197.664928 
L 218.976784 188.51639 
L 219.845544 204.692125 
L 220.714305 237.364137 
L 221.583066 189.396732 
L 222.451827 196.461031 
L 223.320588 199.866582 
L 224.189349 184.551704 
L 225.05811 166.748624 
L 225.926871 193.093453 
L 226.795631 200.580659 
L 227.664392 194.967087 
L 228.533153 207.946062 
L 229.401914 208.314196 
L 230.270675 164.43059 
L 231.139436 192.018472 
L 232.008197 184.858039 
L 232.876958 210.119671 
L 233.745718 196.901404 
L 234.614479 177.311246 
L 235.48324 212.667227 
L 236.352001 175.923755 
L 237.220762 188.461486 
L 238.089523 212.999772 
L 238.958284 176.809526 
L 239.827045 204.323115 
L 241.564566 180.403094 
L 242.433327 164.527758 
L 243.302088 202.451466 
L 244.170849 186.973177 
L 245.03961 190.102854 
L 245.908371 181.460081 
L 246.777132 192.400429 
L 247.645892 186.769782 
L 248.514653 178.96443 
L 249.383414 201.746269 
L 250.252175 189.947872 
L 251.120936 161.106666 
L 251.989697 193.663557 
L 252.858458 183.840222 
L 253.727219 169.61679 
L 254.595979 199.372161 
L 255.46474 196.490828 
L 256.333501 166.274346 
L 257.202262 182.1935 
L 258.071023 209.006835 
L 258.939784 184.705761 
L 259.808545 196.510006 
L 260.677306 198.100262 
L 261.546066 183.434506 
L 263.283588 200.828975 
L 264.152349 178.685092 
L 265.02111 191.630956 
L 266.758632 166.268581 
L 267.627393 143.705515 
L 268.496153 174.614651 
L 269.364914 140.723474 
L 270.233675 201.419346 
L 271.102436 171.683803 
L 271.971197 178.449497 
L 272.839958 189.803968 
L 273.708719 172.87085 
L 274.57748 169.984424 
L 275.44624 181.676191 
L 277.183762 196.709142 
L 278.052523 167.20523 
L 278.921284 177.936377 
L 279.790045 180.146651 
L 280.658806 144.415546 
L 281.527567 165.760672 
L 282.396328 202.102791 
L 283.265088 165.386369 
L 284.133849 202.547819 
L 285.00261 179.453566 
L 285.871371 161.846267 
L 286.740132 153.991797 
L 287.608893 178.448716 
L 288.477654 164.249358 
L 289.346415 177.454239 
L 290.215175 174.776185 
L 291.083936 172.809764 
L 292.821458 179.26359 
L 293.690219 171.811426 
L 294.55898 193.819895 
L 295.427741 173.374446 
L 296.296502 164.813239 
L 297.165262 190.580822 
L 298.034023 170.218348 
L 298.902784 162.574517 
L 299.771545 171.440663 
L 300.640306 171.475588 
L 301.509067 160.406912 
L 302.377828 184.974912 
L 303.246589 179.867874 
L 304.115349 178.942302 
L 304.98411 171.827762 
L 305.852871 178.201016 
L 306.721632 153.841279 
L 307.590393 177.846295 
L 308.459154 171.095692 
L 309.327915 190.210826 
L 310.196676 161.787133 
L 311.065436 162.978041 
L 311.934197 159.57297 
L 312.802958 152.053181 
L 314.54048 193.685747 
L 315.409241 175.509666 
L 316.278002 124.603533 
L 317.146763 165.584855 
L 318.015523 173.367113 
L 318.884284 151.423941 
L 320.621806 182.590917 
L 321.490567 152.68915 
L 322.359328 169.482006 
L 323.228089 145.800606 
L 324.09685 148.686958 
L 325.834371 183.565635 
L 326.703132 139.166726 
L 327.571893 202.260662 
L 328.440654 137.174732 
L 330.178176 175.798385 
L 331.046937 178.879792 
L 331.915697 184.079966 
L 332.784458 159.410046 
L 333.653219 154.934363 
L 334.52198 149.26801 
L 335.390741 125.957715 
L 336.259502 148.573823 
L 337.128263 137.326434 
L 337.997024 152.521892 
L 338.865784 147.998658 
L 339.734545 133.149171 
L 340.603306 145.71531 
L 341.472067 150.833379 
L 342.340828 139.777191 
L 343.209589 146.485249 
L 344.07835 190.093186 
L 344.947111 190.945135 
L 345.815871 145.864178 
L 346.684632 153.447683 
L 347.553393 153.136685 
L 348.422154 140.228718 
L 349.290915 166.858205 
L 350.159676 176.412212 
L 351.028437 133.450495 
L 351.897198 145.198288 
L 352.765958 165.335224 
L 353.634719 178.453502 
L 354.50348 120.411783 
L 355.372241 153.36568 
L 356.241002 141.735581 
L 357.109763 157.92375 
L 357.978524 137.003236 
L 358.847285 157.058847 
L 359.716045 128.864846 
L 360.584806 135.647937 
L 361.453567 157.70862 
L 362.322328 149.056529 
L 363.191089 154.080195 
L 364.05985 135.372166 
L 364.928611 155.015688 
L 365.797372 127.727801 
L 366.666132 168.148925 
L 367.534893 127.430106 
L 368.403654 176.226906 
L 369.272415 158.752002 
L 370.141176 172.156157 
L 371.009937 132.29777 
L 371.878698 189.098209 
L 372.747459 162.8251 
L 373.616219 153.787786 
L 374.48498 141.782611 
L 375.353741 147.33231 
L 376.222502 130.329795 
L 377.091263 158.245497 
L 377.960024 162.601979 
L 378.828785 188.748548 
L 379.697546 115.536765 
L 380.566306 145.602093 
L 381.435067 140.134042 
L 382.303828 153.641513 
L 383.172589 177.652335 
L 384.04135 134.332569 
L 384.910111 150.01695 
L 385.778872 151.384518 
L 386.647633 145.274602 
L 387.516393 125.906427 
L 388.385154 148.374816 
L 389.253915 134.810962 
L 390.122676 169.943214 
L 390.991437 138.857145 
L 391.860198 117.642113 
L 392.728959 160.131723 
L 393.59772 158.14698 
L 394.46648 127.055605 
L 395.335241 147.365585 
L 396.204002 155.929736 
L 397.072763 148.831136 
L 397.941524 186.999359 
L 398.810285 123.244155 
L 399.679046 144.860431 
L 400.547807 138.523752 
L 401.416567 159.287127 
L 402.285328 145.443797 
L 403.154089 113.283522 
L 404.02285 108.746177 
L 404.891611 145.040848 
L 406.629133 112.715458 
L 407.497894 137.973345 
L 408.366654 117.369121 
L 409.235415 133.960506 
L 410.104176 125.278755 
L 410.972937 164.684493 
L 411.841698 153.089703 
L 412.710459 128.894849 
L 413.57922 132.689306 
L 414.447981 114.484906 
L 415.316741 114.696004 
L 416.185502 143.448613 
L 417.054263 161.686349 
L 418.791785 106.557998 
L 419.660546 145.848458 
L 420.529307 97.339699 
L 421.398068 117.415268 
L 422.266828 160.513317 
L 423.135589 140.494343 
L 424.00435 168.943465 
L 424.873111 136.364835 
L 425.741872 147.012706 
L 426.610633 152.301538 
L 427.479394 139.835498 
L 428.348155 139.825796 
L 429.216915 118.734778 
L 430.085676 115.703729 
L 430.954437 132.09178 
L 431.823198 127.330534 
L 432.691959 165.667783 
L 433.56072 141.105356 
L 434.429481 147.141855 
L 435.298242 108.68568 
L 437.035763 167.104379 
L 437.904524 152.339832 
L 438.773285 133.290104 
L 439.642046 145.62544 
L 440.510807 116.618613 
L 441.379568 118.839136 
L 442.248329 113.939689 
L 443.117089 121.041796 
L 443.98585 119.946536 
L 444.854611 136.666063 
L 445.723372 124.919077 
L 446.592133 174.284079 
L 447.460894 112.333152 
L 448.329655 100.767111 
L 449.198416 130.857949 
L 450.067176 125.021956 
L 450.935937 116.315838 
L 451.804698 115.941597 
L 452.673459 135.810992 
L 454.410981 148.87353 
L 455.279742 107.905238 
L 456.148503 128.513138 
L 457.017263 94.746037 
L 457.886024 120.814821 
L 458.754785 89.548006 
L 459.623546 146.30818 
L 460.492307 137.49335 
L 461.361068 138.502664 
L 462.229829 117.078424 
L 463.09859 116.852346 
L 463.96735 147.26372 
L 464.836111 157.051904 
L 465.704872 144.756553 
L 466.573633 156.884797 
L 467.442394 99.704502 
L 468.311155 117.885842 
L 469.179916 110.808404 
L 470.048677 143.606868 
L 470.917437 104.004465 
L 471.786198 125.168503 
L 472.654959 121.780343 
L 473.52372 125.418462 
L 474.392481 115.570793 
L 475.261242 127.045075 
L 476.130003 136.575803 
L 476.998764 127.403938 
L 477.867524 130.014737 
L 478.736285 138.33036 
L 479.605046 137.169419 
L 480.473807 121.790079 
L 481.342568 125.584508 
L 482.211329 117.617725 
L 483.08009 97.929166 
L 483.948851 179.309217 
L 484.817612 106.508496 
L 485.686372 128.515076 
L 486.555133 101.118744 
L 487.423894 106.29644 
L 488.292655 148.510751 
L 489.161416 145.348142 
L 490.030177 158.182336 
L 490.898938 127.73603 
L 491.767699 109.994372 
L 492.636459 108.447633 
L 493.50522 124.297807 
L 494.373981 127.41177 
L 495.242742 108.646503 
L 496.111503 126.392734 
L 496.980264 112.596531 
L 497.849025 117.182494 
L 498.717786 69.019493 
L 499.586546 129.44012 
L 500.455307 108.19206 
L 501.324068 90.520115 
L 502.192829 127.948265 
L 503.06159 129.470205 
L 503.930351 144.623446 
L 504.799112 80.86047 
L 505.667873 118.966786 
L 506.536633 125.22963 
L 507.405394 124.238488 
L 508.274155 153.333672 
L 509.142916 139.47773 
L 510.011677 118.703448 
L 511.749199 136.104044 
L 512.61796 125.400702 
L 513.48672 97.896548 
L 514.355481 127.569519 
L 515.224242 108.201481 
L 516.093003 138.54588 
L 516.961764 133.774892 
L 517.830525 121.732526 
L 518.699286 138.24583 
L 519.568047 101.302769 
L 520.436807 132.130478 
L 521.305568 124.084026 
L 522.174329 139.48166 
L 523.04309 120.294252 
L 523.911851 165.056933 
L 524.780612 93.724632 
L 525.649373 105.839779 
L 526.518134 104.940533 
L 527.386894 115.010966 
L 528.255655 109.423864 
L 528.255655 109.423864 
" clip-path="url(#pd607f8055e)" style="fill: none; stroke: #0000ff; stroke-opacity: 0.3; stroke-width: 1.5; stroke-linecap: square"/>
   </g>
   <g id="line2d_42">
    <path d="M 77.368761 412.609354 
L 79.106283 365.569193 
L 80.843804 328.075933 
L 82.581326 299.051104 
L 83.450087 287.377331 
L 84.318848 277.416239 
L 85.187609 269.033021 
L 86.05637 262.092867 
L 86.925131 256.46097 
L 87.793891 252.002521 
L 88.662652 248.58271 
L 89.531413 244.135788 
L 90.400174 241.226553 
L 91.268935 240.352595 
L 92.137696 241.083349 
L 93.006457 240.198994 
L 93.875218 241.179039 
L 96.4815 241.819927 
L 97.350261 241.482772 
L 98.219022 242.467932 
L 99.087783 242.861941 
L 99.956544 243.047736 
L 100.825305 243.374295 
L 101.694065 243.08224 
L 102.562826 243.205774 
L 103.431587 242.359058 
L 104.300348 243.313051 
L 105.169109 243.628312 
L 106.03787 243.612827 
L 106.906631 242.456718 
L 107.775392 242.429751 
L 109.512913 243.255 
L 110.381674 242.78499 
L 111.250435 241.980287 
L 112.119196 241.546089 
L 112.987957 240.423556 
L 113.856718 239.051891 
L 114.725479 237.39312 
L 115.594239 236.11136 
L 116.463 236.143938 
L 117.331761 236.296259 
L 118.200522 235.442384 
L 119.069283 233.971727 
L 119.938044 234.11525 
L 120.806805 232.120568 
L 121.675566 231.610729 
L 122.544326 231.605519 
L 123.413087 230.680407 
L 124.281848 228.266802 
L 125.150609 227.227742 
L 126.01937 227.088209 
L 127.756892 225.618922 
L 128.625653 226.911221 
L 129.494413 225.469112 
L 130.363174 225.017315 
L 132.100696 223.066265 
L 132.969457 221.974373 
L 133.838218 221.989367 
L 134.706979 222.216309 
L 135.57574 222.107554 
L 136.4445 221.373865 
L 137.313261 222.011326 
L 138.182022 221.948057 
L 139.050783 223.253883 
L 139.919544 224.003419 
L 140.788305 223.321008 
L 141.657066 223.132427 
L 142.525827 225.117824 
L 143.394587 224.159237 
L 144.263348 225.884035 
L 145.132109 225.742801 
L 146.00087 224.213591 
L 146.869631 224.33106 
L 147.738392 225.624669 
L 148.607153 226.586858 
L 150.344674 224.393015 
L 151.213435 224.669929 
L 152.082196 222.455618 
L 152.950957 221.175785 
L 153.819718 220.421654 
L 154.688479 218.373716 
L 155.55724 217.90867 
L 156.426001 218.077955 
L 157.294761 217.554919 
L 158.163522 218.49892 
L 159.032283 217.974721 
L 159.901044 219.014146 
L 160.769805 217.985113 
L 161.638566 219.033288 
L 162.507327 219.29495 
L 164.244848 218.783115 
L 165.113609 217.302252 
L 165.98237 216.758318 
L 166.851131 216.811667 
L 167.719892 214.870329 
L 168.588653 213.636565 
L 169.457414 214.717546 
L 170.326175 214.144337 
L 172.063696 211.150097 
L 172.932457 210.183276 
L 173.801218 210.138092 
L 174.669979 210.484604 
L 175.53874 208.978414 
L 176.407501 207.738099 
L 177.276262 204.984096 
L 178.145022 204.287878 
L 180.751305 207.515024 
L 182.488827 206.338487 
L 183.357588 205.395036 
L 184.226349 206.436624 
L 185.095109 205.74602 
L 185.96387 202.880971 
L 186.832631 200.411753 
L 187.701392 199.323654 
L 188.570153 199.259734 
L 189.438914 198.899358 
L 190.307675 197.198026 
L 191.176436 195.829692 
L 192.045196 195.287807 
L 193.782718 194.902826 
L 194.651479 194.293333 
L 195.52024 195.049004 
L 196.389001 196.764646 
L 197.257762 199.842175 
L 198.995283 199.765751 
L 199.864044 199.324985 
L 200.732805 201.637283 
L 201.601566 205.251665 
L 203.339088 206.332957 
L 204.207849 207.866187 
L 205.07661 207.213871 
L 205.94537 207.755141 
L 206.814131 207.518557 
L 208.551653 204.335874 
L 209.420414 202.33793 
L 210.289175 203.24652 
L 212.026697 203.125393 
L 212.895457 201.503704 
L 213.764218 201.089174 
L 215.50174 199.730765 
L 216.370501 199.252956 
L 217.239262 197.706318 
L 218.108023 197.984489 
L 218.976784 199.678911 
L 219.845544 199.048955 
L 220.714305 197.894263 
L 221.583066 195.877244 
L 222.451827 195.463655 
L 223.320588 197.277116 
L 224.189349 195.383583 
L 225.05811 194.933464 
L 225.926871 195.484352 
L 226.795631 194.101916 
L 227.664392 193.193108 
L 229.401914 192.29156 
L 231.139436 192.597505 
L 232.008197 191.345302 
L 232.876958 193.411995 
L 233.745718 192.999046 
L 234.614479 193.387735 
L 235.48324 193.424107 
L 236.352001 192.93027 
L 238.089523 189.832361 
L 238.958284 189.552498 
L 239.827045 190.401277 
L 240.695805 190.134338 
L 241.564566 190.823482 
L 242.433327 189.562782 
L 244.170849 186.148739 
L 245.03961 187.547193 
L 245.908371 187.358364 
L 246.777132 184.735 
L 247.645892 185.791132 
L 248.514653 184.331691 
L 249.383414 183.564166 
L 250.252175 185.313527 
L 251.120936 184.709891 
L 251.989697 185.399961 
L 252.858458 186.968081 
L 253.727219 187.051893 
L 254.595979 186.626239 
L 256.333501 190.478407 
L 257.202262 190.329702 
L 258.071023 191.074049 
L 258.939784 188.850579 
L 259.808545 188.180631 
L 260.677306 186.532414 
L 261.546066 185.713375 
L 262.414827 185.443313 
L 263.283588 183.371943 
L 264.152349 182.25217 
L 265.02111 180.369657 
L 265.889871 177.410942 
L 266.758632 177.808262 
L 267.627393 177.590449 
L 268.496153 175.517769 
L 270.233675 176.216211 
L 271.102436 173.702929 
L 271.971197 174.258313 
L 272.839958 173.337022 
L 273.708719 173.420643 
L 274.57748 175.034544 
L 275.44624 177.600304 
L 276.315001 177.662209 
L 277.183762 179.385093 
L 278.052523 179.776284 
L 278.921284 179.646271 
L 279.790045 177.944958 
L 280.658806 177.437378 
L 281.527567 174.529089 
L 282.396328 175.310491 
L 283.265088 173.545281 
L 284.133849 173.424984 
L 285.00261 174.433865 
L 285.871371 173.203842 
L 286.740132 172.947921 
L 288.477654 174.172704 
L 289.346415 175.486865 
L 290.215175 175.766544 
L 291.083936 175.226595 
L 291.952697 175.38287 
L 292.821458 173.454187 
L 293.690219 172.71885 
L 294.55898 173.841656 
L 295.427741 174.285446 
L 296.296502 175.505793 
L 297.165262 176.203072 
L 298.034023 174.949178 
L 298.902784 174.567721 
L 299.771545 175.088672 
L 300.640306 174.70061 
L 301.509067 175.062604 
L 302.377828 173.951288 
L 303.246589 171.836398 
L 304.115349 171.201348 
L 304.98411 173.220991 
L 305.852871 172.064874 
L 306.721632 171.926683 
L 307.590393 171.990548 
L 308.459154 170.447949 
L 309.327915 169.80691 
L 310.196676 169.904647 
L 311.065436 168.429106 
L 311.934197 168.52054 
L 312.802958 168.101468 
L 313.671719 165.837172 
L 314.54048 164.276597 
L 315.409241 165.125746 
L 316.278002 162.7593 
L 317.146763 163.908494 
L 318.015523 164.159225 
L 318.884284 162.008563 
L 319.753045 161.300215 
L 320.621806 160.445217 
L 321.490567 162.489312 
L 323.228089 164.137313 
L 324.09685 165.533328 
L 324.96561 164.56801 
L 325.834371 165.031499 
L 326.703132 165.916387 
L 327.571893 166.356192 
L 328.440654 164.216202 
L 330.178176 161.93969 
L 331.046937 160.134053 
L 331.915697 158.637932 
L 332.784458 156.169926 
L 333.653219 152.908702 
L 334.52198 153.419433 
L 336.259502 150.53999 
L 337.128263 150.565095 
L 337.997024 150.374222 
L 338.865784 147.588017 
L 339.734545 151.009177 
L 340.603306 150.09898 
L 341.472067 148.971139 
L 342.340828 148.769727 
L 343.209589 152.343578 
L 344.07835 154.602732 
L 344.947111 156.442155 
L 345.815871 157.20518 
L 346.684632 158.756324 
L 347.553393 157.504085 
L 348.422154 158.613594 
L 349.290915 158.133944 
L 350.159676 157.03578 
L 351.028437 156.179473 
L 351.897198 153.97362 
L 352.765958 153.101672 
L 353.634719 151.192579 
L 354.50348 149.831722 
L 355.372241 146.315467 
L 356.241002 147.776263 
L 357.109763 147.403861 
L 358.847285 145.040349 
L 359.716045 146.154574 
L 360.584806 143.492453 
L 361.453567 144.342514 
L 362.322328 146.787495 
L 364.05985 148.194691 
L 364.928611 150.797838 
L 365.797372 152.90299 
L 366.666132 151.729278 
L 367.534893 151.165845 
L 368.403654 153.977167 
L 369.272415 155.554224 
L 370.141176 156.032675 
L 371.009937 156.721055 
L 371.878698 154.619457 
L 373.616219 155.396524 
L 374.48498 155.230391 
L 375.353741 155.596857 
L 376.222502 155.514406 
L 377.091263 154.843009 
L 379.697546 149.203787 
L 380.566306 150.472894 
L 381.435067 148.501107 
L 382.303828 147.907261 
L 383.172589 146.736488 
L 384.04135 147.609537 
L 384.910111 147.187555 
L 385.778872 146.983899 
L 386.647633 144.393227 
L 387.516393 145.744005 
L 388.385154 144.440292 
L 389.253915 144.835016 
L 390.122676 144.588272 
L 390.991437 147.268645 
L 391.860198 147.415322 
L 392.728959 148.466765 
L 393.59772 146.761396 
L 394.46648 146.638615 
L 395.335241 148.703704 
L 396.204002 146.872231 
L 397.072763 146.807135 
L 398.810285 144.888772 
L 399.679046 140.727064 
L 400.547807 138.796037 
L 401.416567 137.490601 
L 402.285328 137.998149 
L 403.154089 137.778044 
L 404.02285 135.659213 
L 404.891611 134.146331 
L 406.629133 130.56677 
L 407.497894 131.088151 
L 408.366654 129.990336 
L 409.235415 131.271431 
L 410.104176 133.724341 
L 410.972937 130.80735 
L 411.841698 130.629317 
L 412.710459 129.138032 
L 413.57922 131.356917 
L 414.447981 132.78211 
L 415.316741 132.370356 
L 416.185502 132.163742 
L 417.923024 135.799937 
L 419.660546 136.90457 
L 420.529307 136.341674 
L 421.398068 134.588587 
L 422.266828 133.940235 
L 423.135589 135.483536 
L 424.00435 138.831166 
L 424.873111 139.003898 
L 426.610633 137.229618 
L 427.479394 137.064503 
L 428.348155 137.65045 
L 429.216915 141.034015 
L 430.085676 142.459114 
L 430.954437 141.940745 
L 431.823198 142.623085 
L 432.691959 140.027606 
L 433.56072 136.846591 
L 434.429481 136.65545 
L 435.298242 133.139829 
L 436.167002 135.204282 
L 437.035763 135.857365 
L 437.904524 135.206803 
L 438.773285 135.414763 
L 439.642046 135.460034 
L 440.510807 135.387965 
L 441.379568 132.891053 
L 442.248329 129.726061 
L 443.117089 127.241028 
L 443.98585 126.645259 
L 444.854611 127.06454 
L 445.723372 128.082056 
L 446.592133 127.850891 
L 447.460894 126.74558 
L 448.329655 123.904709 
L 450.067176 124.063298 
L 450.935937 124.689858 
L 451.804698 126.147213 
L 453.54222 122.956026 
L 455.279742 121.121823 
L 456.148503 123.154067 
L 457.017263 124.694962 
L 457.886024 125.758932 
L 458.754785 128.218889 
L 459.623546 129.729495 
L 460.492307 128.767545 
L 461.361068 129.400183 
L 462.229829 129.475621 
L 463.09859 129.376471 
L 463.96735 128.295145 
L 464.836111 127.883215 
L 465.704872 128.731573 
L 466.573633 130.244908 
L 467.442394 129.221377 
L 468.311155 129.479563 
L 469.179916 128.437271 
L 470.048677 128.143736 
L 470.917437 125.927881 
L 471.786198 127.342355 
L 472.654959 124.209802 
L 473.52372 125.7112 
L 474.392481 124.555715 
L 475.261242 124.422479 
L 476.130003 125.308945 
L 476.998764 124.936512 
L 477.867524 125.008244 
L 478.736285 126.096168 
L 479.605046 126.0841 
L 480.473807 127.5561 
L 481.342568 128.10485 
L 482.211329 129.414069 
L 483.08009 128.278724 
L 483.948851 128.965044 
L 484.817612 128.232479 
L 485.686372 128.289668 
L 486.555133 127.201885 
L 487.423894 128.7045 
L 488.292655 127.005443 
L 489.161416 126.070963 
L 490.030177 125.922217 
L 490.898938 124.155106 
L 491.767699 122.751055 
L 492.636459 120.154712 
L 493.50522 121.232989 
L 494.373981 119.345973 
L 495.242742 115.797789 
L 496.111503 117.340249 
L 496.980264 114.058972 
L 497.849025 113.273195 
L 498.717786 112.159308 
L 499.586546 110.485554 
L 500.455307 111.035327 
L 501.324068 112.712339 
L 502.192829 117.099183 
L 503.930351 119.912383 
L 504.799112 119.453724 
L 505.667873 120.418536 
L 506.536633 122.506756 
L 507.405394 122.770842 
L 508.274155 126.010703 
L 509.142916 126.648888 
L 510.011677 128.020632 
L 510.880438 125.449275 
L 511.749199 126.97795 
L 512.61796 125.088962 
L 513.48672 125.757779 
L 516.093003 129.298316 
L 516.961764 126.885949 
L 517.830525 126.935163 
L 518.699286 126.851191 
L 519.568047 126.597633 
L 520.436807 126.138093 
L 521.305568 125.436173 
L 522.174329 124.455474 
L 523.04309 123.159599 
L 523.911851 121.512151 
L 524.780612 119.47673 
L 525.649373 117.01694 
L 526.518134 114.096382 
L 527.386894 110.678659 
L 528.255655 106.727374 
L 528.255655 106.727374 
" clip-path="url(#pd607f8055e)" style="fill: none; stroke: #0000ff; stroke-width: 1.5; stroke-linecap: square"/>
   </g>
   <g id="patch_8">
    <path d="M 76.5 384.48 
L 76.5 51.84 
" style="fill: none; stroke: #000000; stroke-width: 0.8; stroke-linejoin: miter; stroke-linecap: square"/>
   </g>
   <g id="patch_9">
    <path d="M 550.8 384.48 
L 550.8 51.84 
" style="fill: none; stroke: #000000; stroke-width: 0.8; stroke-linejoin: miter; stroke-linecap: square"/>
   </g>
   <g id="patch_10">
    <path d="M 76.5 384.48 
L 550.8 384.48 
" style="fill: none; stroke: #000000; stroke-width: 0.8; stroke-linejoin: miter; stroke-linecap: square"/>
   </g>
   <g id="patch_11">
    <path d="M 76.5 51.84 
L 550.8 51.84 
" style="fill: none; stroke: #000000; stroke-width: 0.8; stroke-linejoin: miter; stroke-linecap: square"/>
   </g>
  </g>
 </g>
 <defs>
  <clipPath id="pd607f8055e">
   <rect x="76.5" y="51.84" width="474.3" height="332.64"/>
  </clipPath>
 </defs>
</svg>
